# MagicaVoxel @ Ephtracy

# material
mtllib Bed.mtl
usemtl palette

# normals
vn -1 0 0
vn 1 0 0
vn 0 0 1
vn 0 0 -1
vn 0 -1 0
vn 0 1 0

# texcoords
vt 0.337891 0.5
vt 0.912109 0.5
vt 0.966797 0.5
vt 0.970703 0.5

# verts
v 12 1 -1
v 12 1 -2
v 12 1 -23
v 12 1 -24
v 12 2 -1
v 12 2 -2
v 12 2 -23
v 12 2 -24
v 12 5 -2
v 12 5 -23
v 12 6 -2
v 12 6 -17
v 12 6 -18
v 12 6 -21
v 12 6 -22
v 12 6 -23
v 12 7 -1
v 12 7 -2
v 12 7 -23
v 12 7 -24
v 12 8 -22
v 12 8 -23
v 12 9 -18
v 12 9 -20
v 12 9 -21
v 12 9 -22
v 12 9 -23
v 12 10 -18
v 12 10 -20
v 12 10 -21
v 12 12 -18
v 12 12 -20
v 12 12 -21
v 12 13 -18
v 12 13 -20
v 12 13 -21
v 12 13 -22
v 12 15 -2
v 12 15 -17
v 12 15 -18
v 12 15 -21
v 12 15 -22
v 12 15 -23
v 12 16 -2
v 12 16 -17
v 12 16 -18
v 12 16 -21
v 12 16 -22
v 12 16 -23
v 12 18 -1
v 12 18 -2
v 12 18 -17
v 12 18 -18
v 12 18 -21
v 12 18 -22
v 12 18 -23
v 12 18 -24
v 13 6 -2
v 13 6 -5
v 13 6 -17
v 13 6 -18
v 13 6 -21
v 13 6 -22
v 13 6 -23
v 13 7 -2
v 13 7 -5
v 13 7 -11
v 13 7 -23
v 13 8 -2
v 13 8 -5
v 13 8 -11
v 13 8 -17
v 13 8 -18
v 13 8 -21
v 13 8 -22
v 13 8 -23
v 13 16 -2
v 13 16 -5
v 13 16 -17
v 13 16 -18
v 13 16 -21
v 13 16 -22
v 13 16 -23
v 13 17 -5
v 13 17 -11
v 13 18 -1
v 13 18 -2
v 13 18 -5
v 13 18 -11
v 13 18 -17
v 13 18 -18
v 13 18 -21
v 13 18 -22
v 13 18 -23
v 13 18 -24
v 13 19 -1
v 13 19 -2
v 13 19 -23
v 13 19 -24
v 18 7 -5
v 18 7 -11
v 18 8 -5
v 18 8 -11
v 18 17 -5
v 18 17 -11
v 18 18 -5
v 18 18 -11
v 21 17 -1
v 21 17 -2
v 21 17 -23
v 21 17 -24
v 21 18 -1
v 21 18 -2
v 21 18 -23
v 21 18 -24
v 22 1 -1
v 22 1 -2
v 22 1 -23
v 22 1 -24
v 22 5 -1
v 22 5 -2
v 22 5 -23
v 22 5 -24
v 22 6 -1
v 22 6 -2
v 22 6 -23
v 22 6 -24
v 22 8 -1
v 22 8 -2
v 22 8 -23
v 22 8 -24
v 22 9 -1
v 22 9 -2
v 22 9 -23
v 22 9 -24
v 22 13 -1
v 22 13 -2
v 22 13 -23
v 22 13 -24
v 22 15 -1
v 22 15 -2
v 22 15 -23
v 22 15 -24
v 22 16 -1
v 22 16 -2
v 22 16 -23
v 22 16 -24
v 22 17 -1
v 22 17 -2
v 22 17 -23
v 22 17 -24
v 13 1 -1
v 13 1 -2
v 13 1 -23
v 13 1 -24
v 13 2 -1
v 13 2 -2
v 13 2 -23
v 13 2 -24
v 13 5 -1
v 13 5 -2
v 13 5 -23
v 13 5 -24
v 13 6 -1
v 13 6 -2
v 13 6 -23
v 13 6 -24
v 13 7 -1
v 13 7 -2
v 13 7 -23
v 13 7 -24
v 13 8 -1
v 13 8 -2
v 13 8 -17
v 13 8 -18
v 13 8 -21
v 13 8 -23
v 13 8 -24
v 13 9 -1
v 13 9 -2
v 13 9 -18
v 13 9 -20
v 13 9 -21
v 13 9 -22
v 13 9 -23
v 13 9 -24
v 13 10 -18
v 13 10 -20
v 13 10 -21
v 13 12 -18
v 13 12 -20
v 13 12 -21
v 13 13 -18
v 13 13 -20
v 13 13 -21
v 13 13 -22
v 13 15 -1
v 13 15 -2
v 13 15 -17
v 13 15 -18
v 13 15 -21
v 13 15 -22
v 13 15 -23
v 13 15 -24
v 13 16 -1
v 13 16 -2
v 13 16 -23
v 13 16 -24
v 13 17 -1
v 13 17 -2
v 13 17 -23
v 13 17 -24
v 14 17 -1
v 14 17 -2
v 14 17 -23
v 14 17 -24
v 14 18 -1
v 14 18 -2
v 14 18 -23
v 14 18 -24
v 22 6 -2
v 22 6 -5
v 22 6 -23
v 22 8 -2
v 22 8 -5
v 22 8 -23
v 22 16 -2
v 22 16 -5
v 22 16 -23
v 22 18 -1
v 22 18 -2
v 22 18 -5
v 22 18 -23
v 22 18 -24
v 22 19 -1
v 22 19 -2
v 22 19 -23
v 22 19 -24
v 23 1 -1
v 23 1 -2
v 23 1 -23
v 23 1 -24
v 23 5 -2
v 23 5 -23
v 23 6 -2
v 23 6 -23
v 23 8 -1
v 23 8 -2
v 23 8 -23
v 23 8 -24
v 23 13 -1
v 23 13 -2
v 23 13 -23
v 23 13 -24
v 23 15 -2
v 23 15 -23
v 23 16 -2
v 23 16 -23
v 23 18 -1
v 23 18 -2
v 23 18 -23
v 23 18 -24
v 12 1 -1
v 12 2 -1
v 12 7 -1
v 12 18 -1
v 13 1 -1
v 13 2 -1
v 13 5 -1
v 13 6 -1
v 13 7 -1
v 13 8 -1
v 13 9 -1
v 13 15 -1
v 13 16 -1
v 13 17 -1
v 13 18 -1
v 13 19 -1
v 14 17 -1
v 14 18 -1
v 19 8 -1
v 19 9 -1
v 21 17 -1
v 21 18 -1
v 22 1 -1
v 22 5 -1
v 22 6 -1
v 22 8 -1
v 22 9 -1
v 22 13 -1
v 22 15 -1
v 22 16 -1
v 22 17 -1
v 22 18 -1
v 22 19 -1
v 23 1 -1
v 23 8 -1
v 23 13 -1
v 23 18 -1
v 13 6 -2
v 13 7 -2
v 13 8 -2
v 13 16 -2
v 13 17 -2
v 14 17 -2
v 14 18 -2
v 19 8 -2
v 21 17 -2
v 21 18 -2
v 22 6 -2
v 22 8 -2
v 22 16 -2
v 22 17 -2
v 13 7 -11
v 13 8 -11
v 13 17 -11
v 13 18 -11
v 18 7 -11
v 18 8 -11
v 18 17 -11
v 18 18 -11
v 12 6 -17
v 12 15 -17
v 12 16 -17
v 12 18 -17
v 13 6 -17
v 13 8 -17
v 13 15 -17
v 13 16 -17
v 13 18 -17
v 12 6 -21
v 12 9 -21
v 12 10 -21
v 12 12 -21
v 12 13 -21
v 12 15 -21
v 12 16 -21
v 12 18 -21
v 13 6 -21
v 13 8 -21
v 13 9 -21
v 13 10 -21
v 13 12 -21
v 13 13 -21
v 13 15 -21
v 13 16 -21
v 13 18 -21
v 12 1 -23
v 12 2 -23
v 12 5 -23
v 12 6 -23
v 12 7 -23
v 12 8 -23
v 12 9 -23
v 12 15 -23
v 12 16 -23
v 12 18 -23
v 13 1 -23
v 13 2 -23
v 13 5 -23
v 13 6 -23
v 13 7 -23
v 13 8 -23
v 13 9 -23
v 13 15 -23
v 13 16 -23
v 13 18 -23
v 13 19 -23
v 19 8 -23
v 19 9 -23
v 22 1 -23
v 22 5 -23
v 22 6 -23
v 22 8 -23
v 22 9 -23
v 22 13 -23
v 22 15 -23
v 22 16 -23
v 22 18 -23
v 22 19 -23
v 23 1 -23
v 23 5 -23
v 23 6 -23
v 23 8 -23
v 23 13 -23
v 23 15 -23
v 23 16 -23
v 23 18 -23
v 12 1 -2
v 12 2 -2
v 12 5 -2
v 12 6 -2
v 12 7 -2
v 12 15 -2
v 12 16 -2
v 12 18 -2
v 13 1 -2
v 13 2 -2
v 13 5 -2
v 13 6 -2
v 13 7 -2
v 13 8 -2
v 13 9 -2
v 13 15 -2
v 13 16 -2
v 13 18 -2
v 13 19 -2
v 19 8 -2
v 19 9 -2
v 22 1 -2
v 22 5 -2
v 22 6 -2
v 22 8 -2
v 22 9 -2
v 22 13 -2
v 22 15 -2
v 22 16 -2
v 22 18 -2
v 22 19 -2
v 23 1 -2
v 23 5 -2
v 23 6 -2
v 23 8 -2
v 23 13 -2
v 23 15 -2
v 23 16 -2
v 23 18 -2
v 13 7 -5
v 13 8 -5
v 13 17 -5
v 13 18 -5
v 18 7 -5
v 18 8 -5
v 18 17 -5
v 18 18 -5
v 12 6 -18
v 12 9 -18
v 12 10 -18
v 12 12 -18
v 12 13 -18
v 12 15 -18
v 12 16 -18
v 12 18 -18
v 13 6 -18
v 13 8 -18
v 13 9 -18
v 13 10 -18
v 13 12 -18
v 13 13 -18
v 13 15 -18
v 13 16 -18
v 13 18 -18
v 12 6 -22
v 12 8 -22
v 12 9 -22
v 12 13 -22
v 12 15 -22
v 12 16 -22
v 12 18 -22
v 13 6 -22
v 13 8 -22
v 13 9 -22
v 13 13 -22
v 13 15 -22
v 13 16 -22
v 13 18 -22
v 13 6 -23
v 13 7 -23
v 13 8 -23
v 13 16 -23
v 13 17 -23
v 14 17 -23
v 14 18 -23
v 19 8 -23
v 21 17 -23
v 21 18 -23
v 22 6 -23
v 22 8 -23
v 22 16 -23
v 22 17 -23
v 12 1 -24
v 12 2 -24
v 12 7 -24
v 12 18 -24
v 13 1 -24
v 13 2 -24
v 13 5 -24
v 13 6 -24
v 13 7 -24
v 13 8 -24
v 13 9 -24
v 13 15 -24
v 13 16 -24
v 13 17 -24
v 13 18 -24
v 13 19 -24
v 14 17 -24
v 14 18 -24
v 19 8 -24
v 19 9 -24
v 21 17 -24
v 21 18 -24
v 22 1 -24
v 22 5 -24
v 22 6 -24
v 22 8 -24
v 22 9 -24
v 22 13 -24
v 22 15 -24
v 22 16 -24
v 22 17 -24
v 22 18 -24
v 22 19 -24
v 23 1 -24
v 23 8 -24
v 23 13 -24
v 23 18 -24
v 12 1 -1
v 13 1 -1
v 22 1 -1
v 23 1 -1
v 12 1 -2
v 13 1 -2
v 22 1 -2
v 23 1 -2
v 12 1 -23
v 13 1 -23
v 22 1 -23
v 23 1 -23
v 12 1 -24
v 13 1 -24
v 22 1 -24
v 23 1 -24
v 13 5 -1
v 22 5 -1
v 12 5 -2
v 13 5 -2
v 22 5 -2
v 23 5 -2
v 12 5 -23
v 13 5 -23
v 22 5 -23
v 23 5 -23
v 13 5 -24
v 22 5 -24
v 13 8 -1
v 19 8 -1
v 22 8 -1
v 13 8 -2
v 19 8 -2
v 22 8 -2
v 12 8 -22
v 13 8 -22
v 12 8 -23
v 13 8 -23
v 19 8 -23
v 22 8 -23
v 13 8 -24
v 19 8 -24
v 22 8 -24
v 12 9 -18
v 13 9 -18
v 12 9 -20
v 13 9 -20
v 12 9 -21
v 13 9 -21
v 12 12 -18
v 13 12 -18
v 12 12 -20
v 13 12 -20
v 12 12 -21
v 13 12 -21
v 13 15 -1
v 22 15 -1
v 12 15 -2
v 13 15 -2
v 22 15 -2
v 23 15 -2
v 12 15 -17
v 13 15 -17
v 12 15 -18
v 13 15 -18
v 12 15 -21
v 13 15 -21
v 12 15 -22
v 13 15 -22
v 12 15 -23
v 13 15 -23
v 22 15 -23
v 23 15 -23
v 13 15 -24
v 22 15 -24
v 13 17 -1
v 14 17 -1
v 21 17 -1
v 22 17 -1
v 13 17 -2
v 14 17 -2
v 21 17 -2
v 22 17 -2
v 13 17 -23
v 14 17 -23
v 21 17 -23
v 22 17 -23
v 13 17 -24
v 14 17 -24
v 21 17 -24
v 22 17 -24
v 14 18 -1
v 21 18 -1
v 14 18 -2
v 21 18 -2
v 14 18 -23
v 21 18 -23
v 14 18 -24
v 21 18 -24
v 13 6 -1
v 22 6 -1
v 12 6 -2
v 13 6 -2
v 22 6 -2
v 23 6 -2
v 13 6 -5
v 22 6 -5
v 12 6 -17
v 13 6 -17
v 12 6 -18
v 13 6 -18
v 12 6 -21
v 13 6 -21
v 12 6 -22
v 13 6 -22
v 12 6 -23
v 13 6 -23
v 22 6 -23
v 23 6 -23
v 13 6 -24
v 22 6 -24
v 13 7 -5
v 18 7 -5
v 13 7 -11
v 18 7 -11
v 13 8 -2
v 19 8 -2
v 22 8 -2
v 13 8 -5
v 18 8 -5
v 22 8 -5
v 13 8 -11
v 18 8 -11
v 13 8 -17
v 13 8 -18
v 13 8 -21
v 13 8 -23
v 19 8 -23
v 22 8 -23
v 13 9 -1
v 19 9 -1
v 22 9 -1
v 13 9 -2
v 19 9 -2
v 22 9 -2
v 12 9 -22
v 13 9 -22
v 12 9 -23
v 13 9 -23
v 19 9 -23
v 22 9 -23
v 13 9 -24
v 19 9 -24
v 22 9 -24
v 12 10 -18
v 13 10 -18
v 12 10 -20
v 13 10 -20
v 12 10 -21
v 13 10 -21
v 12 13 -18
v 13 13 -18
v 12 13 -20
v 13 13 -20
v 12 13 -21
v 13 13 -21
v 13 16 -1
v 22 16 -1
v 12 16 -2
v 13 16 -2
v 22 16 -2
v 23 16 -2
v 13 16 -5
v 22 16 -5
v 12 16 -17
v 13 16 -17
v 12 16 -18
v 13 16 -18
v 12 16 -21
v 13 16 -21
v 12 16 -22
v 13 16 -22
v 12 16 -23
v 13 16 -23
v 22 16 -23
v 23 16 -23
v 13 16 -24
v 22 16 -24
v 13 17 -5
v 18 17 -5
v 13 17 -11
v 18 17 -11
v 12 18 -1
v 13 18 -1
v 22 18 -1
v 23 18 -1
v 12 18 -2
v 13 18 -2
v 22 18 -2
v 23 18 -2
v 13 18 -5
v 18 18 -5
v 22 18 -5
v 13 18 -11
v 18 18 -11
v 12 18 -17
v 13 18 -17
v 12 18 -18
v 13 18 -18
v 12 18 -21
v 13 18 -21
v 12 18 -22
v 13 18 -22
v 12 18 -23
v 13 18 -23
v 22 18 -23
v 23 18 -23
v 12 18 -24
v 13 18 -24
v 22 18 -24
v 23 18 -24
v 13 19 -1
v 22 19 -1
v 13 19 -2
v 22 19 -2
v 13 19 -23
v 22 19 -23
v 13 19 -24
v 22 19 -24

# faces
f 5/4/1 2/4/1 1/4/1
f 6/4/1 2/4/1 5/4/1
f 7/4/1 4/4/1 3/4/1
f 8/4/1 4/4/1 7/4/1
f 9/1/1 6/1/1 5/1/1
f 10/1/1 8/1/1 7/1/1
f 11/1/1 9/1/1 5/1/1
f 11/4/1 10/4/1 9/4/1
f 12/4/1 10/4/1 11/4/1
f 13/4/1 10/4/1 12/4/1
f 14/4/1 10/4/1 13/4/1
f 15/4/1 10/4/1 14/4/1
f 16/1/1 8/1/1 10/1/1
f 16/4/1 10/4/1 15/4/1
f 17/1/1 11/1/1 5/1/1
f 18/1/1 11/1/1 17/1/1
f 19/1/1 8/1/1 16/1/1
f 20/1/1 8/1/1 19/1/1
f 21/4/1 15/4/1 14/4/1
f 22/4/1 20/4/1 19/4/1
f 23/4/1 13/4/1 12/4/1
f 25/4/1 22/4/1 21/4/1
f 25/4/1 21/4/1 14/4/1
f 26/4/1 22/4/1 25/4/1
f 27/4/1 20/4/1 22/4/1
f 27/4/1 22/4/1 26/4/1
f 28/4/1 24/4/1 23/4/1
f 28/4/1 23/4/1 12/4/1
f 29/1/1 25/1/1 24/1/1
f 29/4/1 24/4/1 28/4/1
f 29/1/1 26/1/1 25/1/1
f 30/1/1 26/1/1 29/1/1
f 31/4/1 28/4/1 12/4/1
f 33/1/1 26/1/1 30/1/1
f 34/4/1 32/4/1 31/4/1
f 34/4/1 31/4/1 12/4/1
f 35/1/1 33/1/1 32/1/1
f 35/4/1 32/4/1 34/4/1
f 36/1/1 26/1/1 33/1/1
f 36/1/1 33/1/1 35/1/1
f 37/1/1 26/1/1 36/1/1
f 38/4/1 18/4/1 17/4/1
f 39/4/1 34/4/1 12/4/1
f 40/4/1 34/4/1 39/4/1
f 41/4/1 37/4/1 36/4/1
f 42/4/1 37/4/1 41/4/1
f 43/4/1 20/4/1 27/4/1
f 44/4/1 42/4/1 41/4/1
f 44/4/1 43/4/1 42/4/1
f 44/4/1 41/4/1 40/4/1
f 44/4/1 38/4/1 17/4/1
f 44/4/1 40/4/1 39/4/1
f 44/4/1 39/4/1 38/4/1
f 45/4/1 43/4/1 44/4/1
f 46/4/1 43/4/1 45/4/1
f 47/4/1 43/4/1 46/4/1
f 48/4/1 43/4/1 47/4/1
f 49/4/1 20/4/1 43/4/1
f 49/4/1 43/4/1 48/4/1
f 50/4/1 44/4/1 17/4/1
f 51/4/1 44/4/1 50/4/1
f 52/4/1 46/4/1 45/4/1
f 53/4/1 46/4/1 52/4/1
f 54/4/1 48/4/1 47/4/1
f 55/4/1 48/4/1 54/4/1
f 56/4/1 20/4/1 49/4/1
f 57/4/1 20/4/1 56/4/1
f 65/3/1 59/3/1 58/3/1
f 66/2/1 60/2/1 59/2/1
f 66/3/1 59/3/1 65/3/1
f 67/2/1 60/2/1 66/2/1
f 68/2/1 64/2/1 63/2/1
f 69/3/1 66/3/1 65/3/1
f 70/3/1 66/3/1 69/3/1
f 71/2/1 60/2/1 67/2/1
f 72/2/1 60/2/1 71/2/1
f 73/2/1 62/2/1 61/2/1
f 74/2/1 62/2/1 73/2/1
f 75/2/1 68/2/1 63/2/1
f 76/2/1 68/2/1 75/2/1
f 84/3/1 78/3/1 77/3/1
f 84/2/1 79/2/1 78/2/1
f 85/2/1 79/2/1 84/2/1
f 87/3/1 84/3/1 77/3/1
f 88/3/1 84/3/1 87/3/1
f 89/2/1 79/2/1 85/2/1
f 90/2/1 79/2/1 89/2/1
f 91/2/1 81/2/1 80/2/1
f 92/2/1 81/2/1 91/2/1
f 93/2/1 83/2/1 82/2/1
f 94/2/1 83/2/1 93/2/1
f 96/4/1 87/4/1 86/4/1
f 97/4/1 87/4/1 96/4/1
f 98/4/1 95/4/1 94/4/1
f 99/4/1 95/4/1 98/4/1
f 102/2/1 101/2/1 100/2/1
f 103/2/1 101/2/1 102/2/1
f 106/2/1 105/2/1 104/2/1
f 107/2/1 105/2/1 106/2/1
f 112/4/1 109/4/1 108/4/1
f 113/4/1 109/4/1 112/4/1
f 114/4/1 111/4/1 110/4/1
f 115/4/1 111/4/1 114/4/1
f 120/4/1 117/4/1 116/4/1
f 121/4/1 117/4/1 120/4/1
f 122/4/1 119/4/1 118/4/1
f 123/4/1 119/4/1 122/4/1
f 128/4/1 125/4/1 124/4/1
f 129/4/1 125/4/1 128/4/1
f 130/4/1 127/4/1 126/4/1
f 131/4/1 127/4/1 130/4/1
f 136/1/1 133/1/1 132/1/1
f 137/1/1 133/1/1 136/1/1
f 138/1/1 135/1/1 134/1/1
f 139/1/1 135/1/1 138/1/1
f 140/4/1 137/4/1 136/4/1
f 141/4/1 137/4/1 140/4/1
f 142/4/1 139/4/1 138/4/1
f 143/4/1 139/4/1 142/4/1
f 148/4/1 145/4/1 144/4/1
f 149/4/1 145/4/1 148/4/1
f 150/4/1 147/4/1 146/4/1
f 151/4/1 147/4/1 150/4/1
f 152/4/2 153/4/2 156/4/2
f 156/4/2 153/4/2 157/4/2
f 154/4/2 155/4/2 158/4/2
f 158/4/2 155/4/2 159/4/2
f 156/1/2 157/1/2 160/1/2
f 160/1/2 157/1/2 161/1/2
f 158/1/2 159/1/2 162/1/2
f 162/1/2 159/1/2 163/1/2
f 164/1/2 165/1/2 168/1/2
f 168/1/2 165/1/2 169/1/2
f 166/1/2 167/1/2 170/1/2
f 170/1/2 167/1/2 171/1/2
f 168/4/2 169/4/2 172/4/2
f 172/4/2 169/4/2 173/4/2
f 170/4/2 171/4/2 177/4/2
f 177/4/2 171/4/2 178/4/2
f 174/4/2 175/4/2 181/4/2
f 176/4/2 177/4/2 183/4/2
f 183/4/2 177/4/2 184/4/2
f 184/4/2 177/4/2 185/4/2
f 181/4/2 182/4/2 187/4/2
f 174/4/2 181/4/2 187/4/2
f 183/1/2 184/1/2 188/1/2
f 187/4/2 182/4/2 188/4/2
f 182/1/2 183/1/2 188/1/2
f 188/1/2 184/1/2 189/1/2
f 174/4/2 187/4/2 190/4/2
f 189/1/2 184/1/2 192/1/2
f 190/4/2 191/4/2 193/4/2
f 174/4/2 190/4/2 193/4/2
f 191/1/2 192/1/2 194/1/2
f 193/4/2 191/4/2 194/4/2
f 192/1/2 184/1/2 195/1/2
f 194/1/2 192/1/2 195/1/2
f 195/1/2 184/1/2 196/1/2
f 179/4/2 180/4/2 197/4/2
f 197/4/2 180/4/2 198/4/2
f 174/4/2 193/4/2 199/4/2
f 199/4/2 193/4/2 200/4/2
f 195/4/2 196/4/2 201/4/2
f 201/4/2 196/4/2 202/4/2
f 185/4/2 186/4/2 203/4/2
f 203/4/2 186/4/2 204/4/2
f 205/4/2 206/4/2 209/4/2
f 209/4/2 206/4/2 210/4/2
f 207/4/2 208/4/2 211/4/2
f 211/4/2 208/4/2 212/4/2
f 213/4/2 214/4/2 217/4/2
f 217/4/2 214/4/2 218/4/2
f 215/4/2 216/4/2 219/4/2
f 219/4/2 216/4/2 220/4/2
f 221/3/2 222/3/2 224/3/2
f 222/2/2 223/2/2 225/2/2
f 224/3/2 222/3/2 225/3/2
f 225/2/2 223/2/2 226/2/2
f 227/3/2 228/3/2 231/3/2
f 228/2/2 229/2/2 232/2/2
f 231/3/2 228/3/2 232/3/2
f 232/2/2 229/2/2 233/2/2
f 230/4/2 231/4/2 235/4/2
f 235/4/2 231/4/2 236/4/2
f 233/4/2 234/4/2 237/4/2
f 237/4/2 234/4/2 238/4/2
f 239/4/2 240/4/2 243/4/2
f 241/4/2 242/4/2 244/4/2
f 239/4/2 243/4/2 245/4/2
f 243/4/2 244/4/2 245/4/2
f 244/4/2 242/4/2 246/4/2
f 245/4/2 244/4/2 246/4/2
f 239/4/2 245/4/2 247/4/2
f 247/4/2 245/4/2 248/4/2
f 246/4/2 242/4/2 249/4/2
f 249/4/2 242/4/2 250/4/2
f 247/1/2 248/1/2 251/1/2
f 251/1/2 248/1/2 252/1/2
f 249/1/2 250/1/2 253/1/2
f 253/1/2 250/1/2 254/1/2
f 251/4/2 252/4/2 255/4/2
f 253/4/2 254/4/2 256/4/2
f 251/4/2 255/4/2 257/4/2
f 255/4/2 256/4/2 257/4/2
f 256/4/2 254/4/2 258/4/2
f 257/4/2 256/4/2 258/4/2
f 251/4/2 257/4/2 259/4/2
f 259/4/2 257/4/2 260/4/2
f 258/4/2 254/4/2 261/4/2
f 261/4/2 254/4/2 262/4/2
f 267/4/3 264/4/3 263/4/3
f 268/1/3 265/1/3 264/1/3
f 268/4/3 264/4/3 267/4/3
f 269/1/3 265/1/3 268/1/3
f 270/1/3 265/1/3 269/1/3
f 271/4/3 266/4/3 265/4/3
f 271/1/3 265/1/3 270/1/3
f 272/4/3 266/4/3 271/4/3
f 273/4/3 266/4/3 272/4/3
f 274/4/3 266/4/3 273/4/3
f 275/4/3 266/4/3 274/4/3
f 276/4/3 266/4/3 275/4/3
f 277/4/3 266/4/3 276/4/3
f 279/4/3 278/4/3 277/4/3
f 279/4/3 277/4/3 276/4/3
f 280/4/3 278/4/3 279/4/3
f 281/4/3 273/4/3 272/4/3
f 282/4/3 273/4/3 281/4/3
f 284/4/3 278/4/3 280/4/3
f 286/4/3 270/4/3 269/4/3
f 287/4/3 270/4/3 286/4/3
f 288/1/3 282/1/3 281/1/3
f 289/1/3 282/1/3 288/1/3
f 291/4/3 275/4/3 274/4/3
f 292/4/3 275/4/3 291/4/3
f 293/4/3 284/4/3 283/4/3
f 294/4/3 278/4/3 284/4/3
f 294/4/3 284/4/3 293/4/3
f 295/4/3 278/4/3 294/4/3
f 296/4/3 287/4/3 286/4/3
f 296/4/3 286/4/3 285/4/3
f 296/4/3 288/4/3 287/4/3
f 297/1/3 290/1/3 289/1/3
f 297/4/3 288/4/3 296/4/3
f 297/1/3 289/1/3 288/1/3
f 298/4/3 292/4/3 291/4/3
f 298/1/3 290/1/3 297/1/3
f 298/4/3 293/4/3 292/4/3
f 298/4/3 294/4/3 293/4/3
f 298/4/3 291/4/3 290/4/3
f 299/4/3 294/4/3 298/4/3
f 305/3/3 304/3/3 303/3/3
f 307/3/3 301/3/3 300/3/3
f 307/3/3 302/3/3 301/3/3
f 308/3/3 306/3/3 305/3/3
f 308/3/3 305/3/3 303/3/3
f 309/3/3 306/3/3 308/3/3
f 310/3/3 307/3/3 300/3/3
f 311/3/3 307/3/3 310/3/3
f 312/3/3 308/3/3 303/3/3
f 313/3/3 308/3/3 312/3/3
f 318/2/3 315/2/3 314/2/3
f 319/2/3 315/2/3 318/2/3
f 320/2/3 317/2/3 316/2/3
f 321/2/3 317/2/3 320/2/3
f 326/4/3 323/4/3 322/4/3
f 327/4/3 323/4/3 326/4/3
f 328/4/3 323/4/3 327/4/3
f 329/4/3 325/4/3 324/4/3
f 330/4/3 325/4/3 329/4/3
f 339/4/3 332/4/3 331/4/3
f 340/4/3 332/4/3 339/4/3
f 341/4/3 332/4/3 340/4/3
f 342/1/3 334/1/3 333/1/3
f 343/1/3 334/1/3 342/1/3
f 344/4/3 336/4/3 335/4/3
f 345/4/3 336/4/3 344/4/3
f 346/4/3 338/4/3 337/4/3
f 347/4/3 338/4/3 346/4/3
f 358/4/3 349/4/3 348/4/3
f 359/1/3 350/1/3 349/1/3
f 359/4/3 349/4/3 358/4/3
f 360/1/3 350/1/3 359/1/3
f 361/1/3 352/1/3 351/1/3
f 362/4/3 353/4/3 352/4/3
f 362/1/3 352/1/3 361/1/3
f 363/4/3 353/4/3 362/4/3
f 364/4/3 355/4/3 354/4/3
f 365/4/3 355/4/3 364/4/3
f 366/4/3 357/4/3 356/4/3
f 367/4/3 357/4/3 366/4/3
f 369/4/3 364/4/3 363/4/3
f 370/4/3 364/4/3 369/4/3
f 374/1/3 370/1/3 369/1/3
f 375/1/3 370/1/3 374/1/3
f 379/4/3 368/4/3 367/4/3
f 380/4/3 368/4/3 379/4/3
f 381/4/3 372/4/3 371/4/3
f 382/4/3 372/4/3 381/4/3
f 383/4/3 374/4/3 373/4/3
f 384/1/3 375/1/3 374/1/3
f 384/4/3 374/4/3 383/4/3
f 384/1/3 376/1/3 375/1/3
f 385/4/3 377/4/3 376/4/3
f 385/1/3 376/1/3 384/1/3
f 386/4/3 377/4/3 385/4/3
f 387/4/3 379/4/3 378/4/3
f 388/4/3 379/4/3 387/4/3
f 389/4/4 390/4/4 397/4/4
f 390/1/4 391/1/4 398/1/4
f 397/4/4 390/4/4 398/4/4
f 398/1/4 391/1/4 399/1/4
f 392/1/4 393/1/4 400/1/4
f 393/4/4 394/4/4 401/4/4
f 400/1/4 393/1/4 401/1/4
f 401/4/4 394/4/4 402/4/4
f 402/4/4 394/4/4 403/4/4
f 403/4/4 394/4/4 404/4/4
f 395/4/4 396/4/4 405/4/4
f 405/4/4 396/4/4 406/4/4
f 402/4/4 403/4/4 408/4/4
f 408/4/4 403/4/4 409/4/4
f 408/1/4 409/1/4 413/1/4
f 413/1/4 409/1/4 414/1/4
f 406/4/4 407/4/4 418/4/4
f 418/4/4 407/4/4 419/4/4
f 410/4/4 411/4/4 420/4/4
f 420/4/4 411/4/4 421/4/4
f 412/4/4 413/4/4 422/4/4
f 413/1/4 414/1/4 423/1/4
f 422/4/4 413/4/4 423/4/4
f 414/1/4 415/1/4 423/1/4
f 415/4/4 416/4/4 424/4/4
f 423/1/4 415/1/4 424/1/4
f 424/4/4 416/4/4 425/4/4
f 417/4/4 418/4/4 426/4/4
f 426/4/4 418/4/4 427/4/4
f 428/3/4 429/3/4 432/3/4
f 432/3/4 429/3/4 433/3/4
f 430/3/4 431/3/4 434/3/4
f 434/3/4 431/3/4 435/3/4
f 436/4/4 437/4/4 444/4/4
f 444/4/4 437/4/4 445/4/4
f 445/4/4 437/4/4 446/4/4
f 438/4/4 439/4/4 447/4/4
f 447/4/4 439/4/4 448/4/4
f 440/4/4 441/4/4 449/4/4
f 449/4/4 441/4/4 450/4/4
f 442/4/4 443/4/4 451/4/4
f 451/4/4 443/4/4 452/4/4
f 453/4/4 454/4/4 460/4/4
f 460/4/4 454/4/4 461/4/4
f 455/1/4 456/1/4 462/1/4
f 456/4/4 457/4/4 463/4/4
f 462/1/4 456/1/4 463/1/4
f 463/4/4 457/4/4 464/4/4
f 458/4/4 459/4/4 465/4/4
f 465/4/4 459/4/4 466/4/4
f 470/2/4 471/2/4 472/2/4
f 467/2/4 468/2/4 474/2/4
f 468/2/4 469/2/4 474/2/4
f 472/2/4 473/2/4 475/2/4
f 470/2/4 472/2/4 475/2/4
f 475/2/4 473/2/4 476/2/4
f 467/2/4 474/2/4 477/2/4
f 477/2/4 474/2/4 478/2/4
f 470/2/4 475/2/4 479/2/4
f 479/2/4 475/2/4 480/2/4
f 481/4/4 482/4/4 485/4/4
f 482/1/4 483/1/4 486/1/4
f 485/4/4 482/4/4 486/4/4
f 486/1/4 483/1/4 487/1/4
f 487/1/4 483/1/4 488/1/4
f 483/4/4 484/4/4 489/4/4
f 488/1/4 483/1/4 489/1/4
f 489/4/4 484/4/4 490/4/4
f 490/4/4 484/4/4 491/4/4
f 491/4/4 484/4/4 492/4/4
f 492/4/4 484/4/4 493/4/4
f 493/4/4 484/4/4 494/4/4
f 494/4/4 484/4/4 495/4/4
f 495/4/4 496/4/4 497/4/4
f 494/4/4 495/4/4 497/4/4
f 497/4/4 496/4/4 498/4/4
f 490/4/4 491/4/4 499/4/4
f 499/4/4 491/4/4 500/4/4
f 498/4/4 496/4/4 502/4/4
f 487/4/4 488/4/4 504/4/4
f 504/4/4 488/4/4 505/4/4
f 499/1/4 500/1/4 506/1/4
f 506/1/4 500/1/4 507/1/4
f 492/4/4 493/4/4 509/4/4
f 509/4/4 493/4/4 510/4/4
f 501/4/4 502/4/4 511/4/4
f 502/4/4 496/4/4 512/4/4
f 511/4/4 502/4/4 512/4/4
f 512/4/4 496/4/4 513/4/4
f 504/4/4 505/4/4 514/4/4
f 503/4/4 504/4/4 514/4/4
f 505/4/4 506/4/4 514/4/4
f 507/1/4 508/1/4 515/1/4
f 514/4/4 506/4/4 515/4/4
f 506/1/4 507/1/4 515/1/4
f 509/4/4 510/4/4 516/4/4
f 515/1/4 508/1/4 516/1/4
f 510/4/4 511/4/4 516/4/4
f 511/4/4 512/4/4 516/4/4
f 508/4/4 509/4/4 516/4/4
f 516/4/4 512/4/4 517/4/4
f 522/4/5 519/4/5 518/4/5
f 523/4/5 519/4/5 522/4/5
f 524/4/5 521/4/5 520/4/5
f 525/4/5 521/4/5 524/4/5
f 530/4/5 527/4/5 526/4/5
f 531/4/5 527/4/5 530/4/5
f 532/4/5 529/4/5 528/4/5
f 533/4/5 529/4/5 532/4/5
f 537/4/5 535/4/5 534/4/5
f 538/4/5 535/4/5 537/4/5
f 540/4/5 537/4/5 536/4/5
f 540/4/5 539/4/5 538/4/5
f 540/4/5 538/4/5 537/4/5
f 541/4/5 539/4/5 540/4/5
f 542/4/5 539/4/5 541/4/5
f 543/4/5 539/4/5 542/4/5
f 544/4/5 542/4/5 541/4/5
f 545/4/5 542/4/5 544/4/5
f 549/4/5 547/4/5 546/4/5
f 550/1/5 548/1/5 547/1/5
f 550/4/5 547/4/5 549/4/5
f 551/1/5 548/1/5 550/1/5
f 554/4/5 553/4/5 552/4/5
f 555/4/5 553/4/5 554/4/5
f 558/4/5 556/4/5 555/4/5
f 559/1/5 557/1/5 556/1/5
f 559/4/5 556/4/5 558/4/5
f 560/1/5 557/1/5 559/1/5
f 563/4/5 562/4/5 561/4/5
f 564/4/5 562/4/5 563/4/5
f 565/1/5 564/1/5 563/1/5
f 566/1/5 564/1/5 565/1/5
f 569/4/5 568/4/5 567/4/5
f 570/4/5 568/4/5 569/4/5
f 571/1/5 570/1/5 569/1/5
f 572/1/5 570/1/5 571/1/5
f 576/4/5 574/4/5 573/4/5
f 577/4/5 574/4/5 576/4/5
f 579/4/5 576/4/5 575/4/5
f 579/4/5 578/4/5 577/4/5
f 579/4/5 577/4/5 576/4/5
f 580/4/5 578/4/5 579/4/5
f 582/4/5 578/4/5 580/4/5
f 583/4/5 582/4/5 581/4/5
f 584/4/5 578/4/5 582/4/5
f 584/4/5 582/4/5 583/4/5
f 586/4/5 578/4/5 584/4/5
f 587/4/5 586/4/5 585/4/5
f 588/4/5 578/4/5 586/4/5
f 588/4/5 586/4/5 587/4/5
f 589/4/5 578/4/5 588/4/5
f 590/4/5 578/4/5 589/4/5
f 591/4/5 589/4/5 588/4/5
f 592/4/5 589/4/5 591/4/5
f 597/4/5 594/4/5 593/4/5
f 598/4/5 594/4/5 597/4/5
f 599/4/5 596/4/5 595/4/5
f 600/4/5 596/4/5 599/4/5
f 605/4/5 602/4/5 601/4/5
f 606/4/5 602/4/5 605/4/5
f 607/4/5 604/4/5 603/4/5
f 608/4/5 604/4/5 607/4/5
f 611/4/5 610/4/5 609/4/5
f 612/4/5 610/4/5 611/4/5
f 615/4/5 614/4/5 613/4/5
f 616/4/5 614/4/5 615/4/5
f 617/4/6 618/4/6 620/4/6
f 620/4/6 618/4/6 621/4/6
f 619/4/6 620/4/6 623/4/6
f 621/4/6 622/4/6 624/4/6
f 619/4/6 623/4/6 625/4/6
f 625/4/6 623/4/6 626/4/6
f 627/4/6 628/4/6 629/4/6
f 629/4/6 628/4/6 630/4/6
f 631/4/6 632/4/6 633/4/6
f 633/4/6 632/4/6 634/4/6
f 624/4/6 622/4/6 635/4/6
f 635/4/6 622/4/6 636/4/6
f 634/4/6 635/4/6 637/4/6
f 637/4/6 635/4/6 638/4/6
f 639/2/6 640/2/6 641/2/6
f 641/2/6 640/2/6 642/2/6
f 643/3/6 644/3/6 646/3/6
f 644/3/6 645/3/6 646/3/6
f 646/3/6 645/3/6 647/3/6
f 647/3/6 645/3/6 648/3/6
f 647/2/6 648/2/6 650/2/6
f 649/2/6 650/2/6 651/2/6
f 651/2/6 650/2/6 652/2/6
f 652/2/6 650/2/6 653/2/6
f 653/2/6 650/2/6 654/2/6
f 650/2/6 648/2/6 655/2/6
f 654/2/6 650/2/6 655/2/6
f 655/2/6 648/2/6 656/2/6
f 657/4/6 658/4/6 660/4/6
f 658/1/6 659/1/6 661/1/6
f 660/4/6 658/4/6 661/4/6
f 661/1/6 659/1/6 662/1/6
f 663/4/6 664/4/6 665/4/6
f 665/4/6 664/4/6 666/4/6
f 666/4/6 667/4/6 669/4/6
f 667/1/6 668/1/6 670/1/6
f 669/4/6 667/4/6 670/4/6
f 670/1/6 668/1/6 671/1/6
f 672/4/6 673/4/6 674/4/6
f 674/4/6 673/4/6 675/4/6
f 674/1/6 675/1/6 676/1/6
f 676/1/6 675/1/6 677/1/6
f 678/4/6 679/4/6 680/4/6
f 680/4/6 679/4/6 681/4/6
f 680/1/6 681/1/6 682/1/6
f 682/1/6 681/1/6 683/1/6
f 684/4/6 685/4/6 687/4/6
f 687/4/6 685/4/6 688/4/6
f 686/4/6 687/4/6 690/4/6
f 688/4/6 689/4/6 691/4/6
f 686/4/6 690/4/6 692/4/6
f 692/4/6 690/4/6 693/4/6
f 694/4/6 695/4/6 696/4/6
f 696/4/6 695/4/6 697/4/6
f 698/4/6 699/4/6 700/4/6
f 700/4/6 699/4/6 701/4/6
f 691/4/6 689/4/6 702/4/6
f 702/4/6 689/4/6 703/4/6
f 701/4/6 702/4/6 704/4/6
f 704/4/6 702/4/6 705/4/6
f 706/2/6 707/2/6 708/2/6
f 708/2/6 707/2/6 709/2/6
f 710/4/6 711/4/6 714/4/6
f 714/4/6 711/4/6 715/4/6
f 712/4/6 713/4/6 716/4/6
f 716/4/6 713/4/6 717/4/6
f 715/3/6 716/3/6 718/3/6
f 718/3/6 716/3/6 719/3/6
f 719/3/6 716/3/6 720/3/6
f 719/2/6 720/2/6 722/2/6
f 721/2/6 722/2/6 724/2/6
f 723/4/6 724/4/6 725/4/6
f 724/2/6 722/2/6 726/2/6
f 725/4/6 724/4/6 726/4/6
f 726/2/6 722/2/6 728/2/6
f 727/4/6 728/4/6 729/4/6
f 728/2/6 722/2/6 730/2/6
f 729/4/6 728/4/6 730/4/6
f 730/2/6 722/2/6 732/2/6
f 722/2/6 720/2/6 733/2/6
f 732/2/6 722/2/6 733/2/6
f 731/4/6 732/4/6 735/4/6
f 735/4/6 732/4/6 736/4/6
f 733/4/6 734/4/6 737/4/6
f 737/4/6 734/4/6 738/4/6
f 739/4/6 740/4/6 741/4/6
f 741/4/6 740/4/6 742/4/6
f 743/4/6 744/4/6 745/4/6
f 745/4/6 744/4/6 746/4/6
