# MagicaVoxel @ Ephtracy

# material
mtllib Red.mtl
usemtl palette

# normals
vn -1 0 0
vn 1 0 0
vn 0 0 1
vn 0 0 -1
vn 0 -1 0
vn 0 1 0

# texcoords
vt 0.830078 0.5
vt 0.841797 0.5
vt 0.865234 0.5
vt 0.939453 0.5
vt 0.966797 0.5
vt 0.974609 0.5

# verts
v -31 23 -18
v -31 23 -25
v -31 110 -18
v -31 110 -25
v 18 109 -18
v 18 109 -25
v 18 110 -18
v 18 110 -25
v 19 108 -18
v 19 108 -25
v 19 109 -18
v 19 109 -25
v 20 107 -18
v 20 107 -25
v 20 108 -18
v 20 108 -25
v 21 106 -18
v 21 106 -25
v 21 107 -18
v 21 107 -25
v 22 105 -18
v 22 105 -25
v 22 106 -18
v 22 106 -25
v 23 104 -18
v 23 104 -25
v 23 105 -18
v 23 105 -25
v 24 103 -18
v 24 103 -25
v 24 104 -18
v 24 104 -25
v 25 102 -18
v 25 102 -25
v 25 103 -18
v 25 103 -25
v 26 101 -18
v 26 101 -25
v 26 102 -18
v 26 102 -25
v 27 100 -18
v 27 100 -25
v 27 101 -18
v 27 101 -25
v 28 99 -18
v 28 99 -25
v 28 100 -18
v 28 100 -25
v 29 98 -18
v 29 98 -25
v 29 99 -18
v 29 99 -25
v 30 97 -18
v 30 97 -25
v 30 98 -18
v 30 98 -25
v 31 96 -18
v 31 96 -25
v 31 97 -18
v 31 97 -25
v 32 95 -18
v 32 95 -25
v 32 96 -18
v 32 96 -25
v 33 23 -18
v 33 23 -25
v 33 95 -18
v 33 95 -25
v -31 23 -18
v -31 110 -18
v -29 25 -18
v -29 108 -18
v -23 23 -18
v -23 25 -18
v -23 41 -18
v -23 89 -18
v -23 108 -18
v -22 41 -18
v -22 42 -18
v -21 23 -18
v -21 40 -18
v -21 42 -18
v -21 43 -18
v -20 40 -18
v -20 41 -18
v -20 43 -18
v -20 44 -18
v -19 41 -18
v -19 42 -18
v -19 44 -18
v -19 45 -18
v -18 42 -18
v -18 43 -18
v -18 45 -18
v -18 46 -18
v -17 43 -18
v -17 44 -18
v -14 93 -18
v -14 108 -18
v 5 96 -18
v 5 108 -18
v 10 96 -18
v 10 108 -18
v 14 93 -18
v 14 108 -18
v 16 89 -18
v 16 108 -18
v 18 107 -18
v 18 108 -18
v 18 109 -18
v 18 110 -18
v 19 106 -18
v 19 107 -18
v 19 108 -18
v 19 109 -18
v 20 43 -18
v 20 44 -18
v 20 105 -18
v 20 106 -18
v 20 107 -18
v 20 108 -18
v 21 42 -18
v 21 43 -18
v 21 45 -18
v 21 46 -18
v 21 104 -18
v 21 105 -18
v 21 106 -18
v 21 107 -18
v 22 41 -18
v 22 42 -18
v 22 44 -18
v 22 45 -18
v 22 103 -18
v 22 104 -18
v 22 105 -18
v 22 106 -18
v 23 40 -18
v 23 41 -18
v 23 43 -18
v 23 44 -18
v 23 102 -18
v 23 103 -18
v 23 104 -18
v 23 105 -18
v 24 23 -18
v 24 40 -18
v 24 42 -18
v 24 43 -18
v 24 101 -18
v 24 102 -18
v 24 103 -18
v 24 104 -18
v 25 41 -18
v 25 42 -18
v 25 100 -18
v 25 101 -18
v 25 102 -18
v 25 103 -18
v 26 23 -18
v 26 25 -18
v 26 41 -18
v 26 99 -18
v 26 100 -18
v 26 101 -18
v 26 102 -18
v 27 98 -18
v 27 99 -18
v 27 100 -18
v 27 101 -18
v 28 97 -18
v 28 98 -18
v 28 99 -18
v 28 100 -18
v 29 96 -18
v 29 97 -18
v 29 98 -18
v 29 99 -18
v 30 95 -18
v 30 96 -18
v 30 97 -18
v 30 98 -18
v 31 25 -18
v 31 95 -18
v 31 96 -18
v 31 97 -18
v 32 95 -18
v 32 96 -18
v 33 23 -18
v 33 95 -18
v -31 23 -25
v -31 110 -25
v -29 25 -25
v -29 108 -25
v -23 23 -25
v -23 25 -25
v -23 41 -25
v -23 89 -25
v -23 108 -25
v -22 41 -25
v -22 42 -25
v -21 23 -25
v -21 40 -25
v -21 42 -25
v -21 43 -25
v -20 40 -25
v -20 41 -25
v -20 43 -25
v -20 44 -25
v -19 41 -25
v -19 42 -25
v -19 44 -25
v -19 45 -25
v -18 42 -25
v -18 43 -25
v -18 45 -25
v -18 46 -25
v -17 43 -25
v -17 44 -25
v -17 46 -25
v -17 47 -25
v -14 93 -25
v -14 108 -25
v 5 96 -25
v 5 108 -25
v 10 96 -25
v 10 108 -25
v 14 93 -25
v 14 108 -25
v 16 89 -25
v 16 108 -25
v 18 107 -25
v 18 108 -25
v 18 109 -25
v 18 110 -25
v 19 106 -25
v 19 107 -25
v 19 108 -25
v 19 109 -25
v 20 43 -25
v 20 44 -25
v 20 46 -25
v 20 47 -25
v 20 105 -25
v 20 106 -25
v 20 107 -25
v 20 108 -25
v 21 42 -25
v 21 43 -25
v 21 45 -25
v 21 46 -25
v 21 104 -25
v 21 105 -25
v 21 106 -25
v 21 107 -25
v 22 41 -25
v 22 42 -25
v 22 44 -25
v 22 45 -25
v 22 103 -25
v 22 104 -25
v 22 105 -25
v 22 106 -25
v 23 40 -25
v 23 41 -25
v 23 43 -25
v 23 44 -25
v 23 102 -25
v 23 103 -25
v 23 104 -25
v 23 105 -25
v 24 23 -25
v 24 40 -25
v 24 42 -25
v 24 43 -25
v 24 101 -25
v 24 102 -25
v 24 103 -25
v 24 104 -25
v 25 41 -25
v 25 42 -25
v 25 100 -25
v 25 101 -25
v 25 102 -25
v 25 103 -25
v 26 23 -25
v 26 25 -25
v 26 41 -25
v 26 99 -25
v 26 100 -25
v 26 101 -25
v 26 102 -25
v 27 98 -25
v 27 99 -25
v 27 100 -25
v 27 101 -25
v 28 97 -25
v 28 98 -25
v 28 99 -25
v 28 100 -25
v 29 96 -25
v 29 97 -25
v 29 98 -25
v 29 99 -25
v 30 95 -25
v 30 96 -25
v 30 97 -25
v 30 98 -25
v 31 25 -25
v 31 95 -25
v 31 96 -25
v 31 97 -25
v 32 95 -25
v 32 96 -25
v 33 23 -25
v 33 95 -25
v -31 23 -18
v -23 23 -18
v -21 23 -18
v 24 23 -18
v 26 23 -18
v 33 23 -18
v -31 23 -25
v -23 23 -25
v -21 23 -25
v 24 23 -25
v 26 23 -25
v 33 23 -25
v 32 95 -18
v 33 95 -18
v 32 95 -25
v 33 95 -25
v 31 96 -18
v 32 96 -18
v 31 96 -25
v 32 96 -25
v 30 97 -18
v 31 97 -18
v 30 97 -25
v 31 97 -25
v 29 98 -18
v 30 98 -18
v 29 98 -25
v 30 98 -25
v 28 99 -18
v 29 99 -18
v 28 99 -25
v 29 99 -25
v 27 100 -18
v 28 100 -18
v 27 100 -25
v 28 100 -25
v 26 101 -18
v 27 101 -18
v 26 101 -25
v 27 101 -25
v 25 102 -18
v 26 102 -18
v 25 102 -25
v 26 102 -25
v 24 103 -18
v 25 103 -18
v 24 103 -25
v 25 103 -25
v 23 104 -18
v 24 104 -18
v 23 104 -25
v 24 104 -25
v 22 105 -18
v 23 105 -18
v 22 105 -25
v 23 105 -25
v 21 106 -18
v 22 106 -18
v 21 106 -25
v 22 106 -25
v 20 107 -18
v 21 107 -18
v 20 107 -25
v 21 107 -25
v 19 108 -18
v 20 108 -18
v 19 108 -25
v 20 108 -25
v 18 109 -18
v 19 109 -18
v 18 109 -25
v 19 109 -25
v -31 110 -18
v 18 110 -18
v -31 110 -25
v 18 110 -25

# faces
f 3/3/1 2/3/1 1/3/1
f 4/3/1 2/3/1 3/3/1
f 5/3/2 6/3/2 7/3/2
f 7/3/2 6/3/2 8/3/2
f 9/3/2 10/3/2 11/3/2
f 11/3/2 10/3/2 12/3/2
f 13/3/2 14/3/2 15/3/2
f 15/3/2 14/3/2 16/3/2
f 17/3/2 18/3/2 19/3/2
f 19/3/2 18/3/2 20/3/2
f 21/3/2 22/3/2 23/3/2
f 23/3/2 22/3/2 24/3/2
f 25/3/2 26/3/2 27/3/2
f 27/3/2 26/3/2 28/3/2
f 29/3/2 30/3/2 31/3/2
f 31/3/2 30/3/2 32/3/2
f 33/3/2 34/3/2 35/3/2
f 35/3/2 34/3/2 36/3/2
f 37/3/2 38/3/2 39/3/2
f 39/3/2 38/3/2 40/3/2
f 41/3/2 42/3/2 43/3/2
f 43/3/2 42/3/2 44/3/2
f 45/3/2 46/3/2 47/3/2
f 47/3/2 46/3/2 48/3/2
f 49/3/2 50/3/2 51/3/2
f 51/3/2 50/3/2 52/3/2
f 53/3/2 54/3/2 55/3/2
f 55/3/2 54/3/2 56/3/2
f 57/3/2 58/3/2 59/3/2
f 59/3/2 58/3/2 60/3/2
f 61/3/2 62/3/2 63/3/2
f 63/3/2 62/3/2 64/3/2
f 65/3/2 66/3/2 67/3/2
f 67/3/2 66/3/2 68/3/2
f 71/3/3 70/3/3 69/3/3
f 72/3/3 70/3/3 71/3/3
f 73/3/3 71/3/3 69/3/3
f 74/2/3 72/2/3 71/2/3
f 74/3/3 71/3/3 73/3/3
f 75/2/3 72/2/3 74/2/3
f 76/2/3 72/2/3 75/2/3
f 77/3/3 70/3/3 72/3/3
f 77/2/3 72/2/3 76/2/3
f 78/2/3 76/2/3 75/2/3
f 78/6/3 74/6/3 73/6/3
f 78/6/3 75/6/3 74/6/3
f 79/2/3 76/2/3 78/2/3
f 80/6/3 78/6/3 73/6/3
f 80/6/3 79/6/3 78/6/3
f 81/6/3 79/6/3 80/6/3
f 82/2/3 76/2/3 79/2/3
f 82/6/3 79/6/3 81/6/3
f 83/2/3 76/2/3 82/2/3
f 84/5/3 81/5/3 80/5/3
f 84/6/3 82/6/3 81/6/3
f 84/6/3 83/6/3 82/6/3
f 85/6/3 83/6/3 84/6/3
f 86/2/3 76/2/3 83/2/3
f 86/6/3 83/6/3 85/6/3
f 87/2/3 76/2/3 86/2/3
f 88/5/3 85/5/3 84/5/3
f 88/6/3 86/6/3 85/6/3
f 88/6/3 87/6/3 86/6/3
f 89/6/3 87/6/3 88/6/3
f 90/2/3 76/2/3 87/2/3
f 90/6/3 87/6/3 89/6/3
f 91/2/3 76/2/3 90/2/3
f 92/5/3 89/5/3 88/5/3
f 92/6/3 90/6/3 89/6/3
f 92/6/3 91/6/3 90/6/3
f 93/6/3 91/6/3 92/6/3
f 94/2/3 76/2/3 91/2/3
f 94/6/3 91/6/3 93/6/3
f 95/2/3 76/2/3 94/2/3
f 96/5/3 93/5/3 92/5/3
f 96/6/3 94/6/3 93/6/3
f 96/6/3 95/6/3 94/6/3
f 97/6/3 95/6/3 96/6/3
f 98/3/3 77/3/3 76/3/3
f 99/3/3 70/3/3 77/3/3
f 99/3/3 77/3/3 98/3/3
f 100/5/3 99/5/3 98/5/3
f 101/3/3 70/3/3 99/3/3
f 101/5/3 99/5/3 100/5/3
f 102/5/3 100/5/3 98/5/3
f 102/3/3 101/3/3 100/3/3
f 103/3/3 70/3/3 101/3/3
f 103/3/3 101/3/3 102/3/3
f 104/3/3 98/3/3 76/3/3
f 104/5/3 102/5/3 98/5/3
f 104/5/3 103/5/3 102/5/3
f 105/3/3 70/3/3 103/3/3
f 105/5/3 103/5/3 104/5/3
f 106/3/3 104/3/3 76/3/3
f 106/2/3 76/2/3 95/2/3
f 106/3/3 105/3/3 104/3/3
f 107/3/3 70/3/3 105/3/3
f 107/3/3 105/3/3 106/3/3
f 108/2/3 107/2/3 106/2/3
f 109/3/3 70/3/3 107/3/3
f 109/2/3 107/2/3 108/2/3
f 110/3/3 70/3/3 109/3/3
f 111/3/3 70/3/3 110/3/3
f 112/2/3 108/2/3 106/2/3
f 113/3/3 109/3/3 108/3/3
f 113/2/3 108/2/3 112/2/3
f 113/3/3 110/3/3 109/3/3
f 114/3/3 110/3/3 113/3/3
f 115/3/3 110/3/3 114/3/3
f 116/5/3 97/5/3 96/5/3
f 116/5/3 96/5/3 92/5/3
f 117/6/3 95/6/3 97/6/3
f 117/5/3 97/5/3 116/5/3
f 118/2/3 112/2/3 106/2/3
f 119/3/3 114/3/3 113/3/3
f 119/2/3 112/2/3 118/2/3
f 119/3/3 113/3/3 112/3/3
f 120/3/3 114/3/3 119/3/3
f 121/3/3 114/3/3 120/3/3
f 122/5/3 116/5/3 92/5/3
f 122/5/3 92/5/3 88/5/3
f 123/6/3 117/6/3 116/6/3
f 123/5/3 116/5/3 122/5/3
f 124/6/3 95/6/3 117/6/3
f 124/6/3 117/6/3 123/6/3
f 125/2/3 106/2/3 95/2/3
f 125/6/3 95/6/3 124/6/3
f 125/2/3 118/2/3 106/2/3
f 126/2/3 118/2/3 125/2/3
f 127/3/3 120/3/3 119/3/3
f 127/2/3 118/2/3 126/2/3
f 127/3/3 119/3/3 118/3/3
f 128/3/3 120/3/3 127/3/3
f 129/3/3 120/3/3 128/3/3
f 130/5/3 88/5/3 84/5/3
f 130/5/3 122/5/3 88/5/3
f 131/6/3 124/6/3 123/6/3
f 131/5/3 122/5/3 130/5/3
f 131/6/3 123/6/3 122/6/3
f 132/6/3 124/6/3 131/6/3
f 133/2/3 126/2/3 125/2/3
f 133/6/3 124/6/3 132/6/3
f 133/2/3 125/2/3 124/2/3
f 134/2/3 126/2/3 133/2/3
f 135/3/3 127/3/3 126/3/3
f 135/2/3 126/2/3 134/2/3
f 135/3/3 128/3/3 127/3/3
f 136/3/3 128/3/3 135/3/3
f 137/3/3 128/3/3 136/3/3
f 138/5/3 130/5/3 84/5/3
f 138/5/3 84/5/3 80/5/3
f 139/6/3 132/6/3 131/6/3
f 139/5/3 130/5/3 138/5/3
f 139/6/3 131/6/3 130/6/3
f 140/6/3 132/6/3 139/6/3
f 141/2/3 134/2/3 133/2/3
f 141/6/3 132/6/3 140/6/3
f 141/2/3 133/2/3 132/2/3
f 142/2/3 134/2/3 141/2/3
f 143/3/3 136/3/3 135/3/3
f 143/2/3 134/2/3 142/2/3
f 143/3/3 135/3/3 134/3/3
f 144/3/3 136/3/3 143/3/3
f 145/3/3 136/3/3 144/3/3
f 146/5/3 138/5/3 80/5/3
f 147/6/3 140/6/3 139/6/3
f 147/5/3 138/5/3 146/5/3
f 147/6/3 139/6/3 138/6/3
f 148/6/3 140/6/3 147/6/3
f 149/2/3 142/2/3 141/2/3
f 149/6/3 140/6/3 148/6/3
f 149/2/3 141/2/3 140/2/3
f 150/2/3 142/2/3 149/2/3
f 151/3/3 144/3/3 143/3/3
f 151/2/3 142/2/3 150/2/3
f 151/3/3 143/3/3 142/3/3
f 152/3/3 144/3/3 151/3/3
f 153/3/3 144/3/3 152/3/3
f 154/6/3 148/6/3 147/6/3
f 154/6/3 147/6/3 146/6/3
f 155/2/3 150/2/3 149/2/3
f 155/6/3 148/6/3 154/6/3
f 155/2/3 149/2/3 148/2/3
f 156/2/3 150/2/3 155/2/3
f 157/3/3 152/3/3 151/3/3
f 157/2/3 150/2/3 156/2/3
f 157/3/3 151/3/3 150/3/3
f 158/3/3 152/3/3 157/3/3
f 159/3/3 152/3/3 158/3/3
f 160/6/3 154/6/3 146/6/3
f 161/6/3 154/6/3 160/6/3
f 162/2/3 156/2/3 155/2/3
f 162/6/3 154/6/3 161/6/3
f 162/2/3 155/2/3 154/2/3
f 163/2/3 156/2/3 162/2/3
f 164/3/3 157/3/3 156/3/3
f 164/2/3 156/2/3 163/2/3
f 164/3/3 158/3/3 157/3/3
f 165/3/3 158/3/3 164/3/3
f 166/3/3 158/3/3 165/3/3
f 167/2/3 163/2/3 162/2/3
f 167/2/3 162/2/3 161/2/3
f 168/3/3 165/3/3 164/3/3
f 168/2/3 163/2/3 167/2/3
f 168/3/3 164/3/3 163/3/3
f 169/3/3 165/3/3 168/3/3
f 170/3/3 165/3/3 169/3/3
f 171/2/3 167/2/3 161/2/3
f 172/3/3 168/3/3 167/3/3
f 172/2/3 167/2/3 171/2/3
f 172/3/3 169/3/3 168/3/3
f 173/3/3 169/3/3 172/3/3
f 174/3/3 169/3/3 173/3/3
f 175/2/3 171/2/3 161/2/3
f 176/3/3 172/3/3 171/3/3
f 176/2/3 171/2/3 175/2/3
f 176/3/3 173/3/3 172/3/3
f 177/3/3 173/3/3 176/3/3
f 178/3/3 173/3/3 177/3/3
f 179/2/3 175/2/3 161/2/3
f 180/3/3 176/3/3 175/3/3
f 180/2/3 175/2/3 179/2/3
f 180/3/3 177/3/3 176/3/3
f 181/3/3 177/3/3 180/3/3
f 182/3/3 177/3/3 181/3/3
f 183/3/3 161/3/3 160/3/3
f 183/2/3 179/2/3 161/2/3
f 184/3/3 181/3/3 180/3/3
f 184/2/3 179/2/3 183/2/3
f 184/3/3 180/3/3 179/3/3
f 185/3/3 181/3/3 184/3/3
f 186/3/3 181/3/3 185/3/3
f 187/3/3 184/3/3 183/3/3
f 187/3/3 185/3/3 184/3/3
f 188/3/3 185/3/3 187/3/3
f 189/3/3 183/3/3 160/3/3
f 189/3/3 187/3/3 183/3/3
f 190/3/3 187/3/3 189/3/3
f 191/3/4 192/3/4 193/3/4
f 193/3/4 192/3/4 194/3/4
f 191/3/4 193/3/4 195/3/4
f 193/2/4 194/2/4 196/2/4
f 195/3/4 193/3/4 196/3/4
f 196/2/4 194/2/4 197/2/4
f 197/2/4 194/2/4 198/2/4
f 194/3/4 192/3/4 199/3/4
f 198/2/4 194/2/4 199/2/4
f 197/2/4 198/2/4 200/2/4
f 195/6/4 196/6/4 200/6/4
f 196/6/4 197/6/4 200/6/4
f 200/2/4 198/2/4 201/2/4
f 195/6/4 200/6/4 202/6/4
f 200/6/4 201/6/4 202/6/4
f 202/6/4 201/6/4 203/6/4
f 201/2/4 198/2/4 204/2/4
f 203/6/4 201/6/4 204/6/4
f 204/2/4 198/2/4 205/2/4
f 202/5/4 203/5/4 206/5/4
f 203/6/4 204/6/4 206/6/4
f 204/6/4 205/6/4 206/6/4
f 206/6/4 205/6/4 207/6/4
f 205/2/4 198/2/4 208/2/4
f 207/6/4 205/6/4 208/6/4
f 208/2/4 198/2/4 209/2/4
f 206/5/4 207/5/4 210/5/4
f 207/6/4 208/6/4 210/6/4
f 208/6/4 209/6/4 210/6/4
f 210/6/4 209/6/4 211/6/4
f 209/2/4 198/2/4 212/2/4
f 211/6/4 209/6/4 212/6/4
f 212/2/4 198/2/4 213/2/4
f 210/5/4 211/5/4 214/5/4
f 211/6/4 212/6/4 214/6/4
f 212/6/4 213/6/4 214/6/4
f 214/6/4 213/6/4 215/6/4
f 213/2/4 198/2/4 216/2/4
f 215/6/4 213/6/4 216/6/4
f 216/2/4 198/2/4 217/2/4
f 214/5/4 215/5/4 218/5/4
f 215/6/4 216/6/4 218/6/4
f 216/6/4 217/6/4 218/6/4
f 218/6/4 217/6/4 219/6/4
f 217/2/4 198/2/4 220/2/4
f 219/6/4 217/6/4 220/6/4
f 220/2/4 198/2/4 221/2/4
f 198/3/4 199/3/4 222/3/4
f 199/3/4 192/3/4 223/3/4
f 222/3/4 199/3/4 223/3/4
f 222/5/4 223/5/4 224/5/4
f 223/3/4 192/3/4 225/3/4
f 224/5/4 223/5/4 225/5/4
f 222/5/4 224/5/4 226/5/4
f 224/3/4 225/3/4 226/3/4
f 225/3/4 192/3/4 227/3/4
f 226/3/4 225/3/4 227/3/4
f 198/3/4 222/3/4 228/3/4
f 222/5/4 226/5/4 228/5/4
f 226/5/4 227/5/4 228/5/4
f 227/3/4 192/3/4 229/3/4
f 228/5/4 227/5/4 229/5/4
f 198/3/4 228/3/4 230/3/4
f 221/2/4 198/2/4 230/2/4
f 228/3/4 229/3/4 230/3/4
f 229/3/4 192/3/4 231/3/4
f 230/3/4 229/3/4 231/3/4
f 230/2/4 231/2/4 232/2/4
f 231/3/4 192/3/4 233/3/4
f 232/2/4 231/2/4 233/2/4
f 233/3/4 192/3/4 234/3/4
f 234/3/4 192/3/4 235/3/4
f 230/2/4 232/2/4 236/2/4
f 232/3/4 233/3/4 237/3/4
f 236/2/4 232/2/4 237/2/4
f 233/3/4 234/3/4 237/3/4
f 237/3/4 234/3/4 238/3/4
f 238/3/4 234/3/4 239/3/4
f 218/5/4 219/5/4 240/5/4
f 214/5/4 218/5/4 240/5/4
f 220/6/4 221/6/4 241/6/4
f 240/5/4 219/5/4 241/5/4
f 219/6/4 220/6/4 241/6/4
f 241/6/4 221/6/4 242/6/4
f 221/2/4 230/2/4 243/2/4
f 242/6/4 221/6/4 243/6/4
f 230/2/4 236/2/4 243/2/4
f 243/2/4 236/2/4 244/2/4
f 237/3/4 238/3/4 245/3/4
f 244/2/4 236/2/4 245/2/4
f 236/3/4 237/3/4 245/3/4
f 245/3/4 238/3/4 246/3/4
f 246/3/4 238/3/4 247/3/4
f 214/5/4 240/5/4 248/5/4
f 210/5/4 214/5/4 248/5/4
f 241/6/4 242/6/4 249/6/4
f 248/5/4 240/5/4 249/5/4
f 240/6/4 241/6/4 249/6/4
f 249/6/4 242/6/4 250/6/4
f 243/2/4 244/2/4 251/2/4
f 250/6/4 242/6/4 251/6/4
f 242/2/4 243/2/4 251/2/4
f 251/2/4 244/2/4 252/2/4
f 245/3/4 246/3/4 253/3/4
f 252/2/4 244/2/4 253/2/4
f 244/3/4 245/3/4 253/3/4
f 253/3/4 246/3/4 254/3/4
f 254/3/4 246/3/4 255/3/4
f 210/5/4 248/5/4 256/5/4
f 206/5/4 210/5/4 256/5/4
f 249/6/4 250/6/4 257/6/4
f 256/5/4 248/5/4 257/5/4
f 248/6/4 249/6/4 257/6/4
f 257/6/4 250/6/4 258/6/4
f 251/2/4 252/2/4 259/2/4
f 258/6/4 250/6/4 259/6/4
f 250/2/4 251/2/4 259/2/4
f 259/2/4 252/2/4 260/2/4
f 253/3/4 254/3/4 261/3/4
f 260/2/4 252/2/4 261/2/4
f 252/3/4 253/3/4 261/3/4
f 261/3/4 254/3/4 262/3/4
f 262/3/4 254/3/4 263/3/4
f 202/5/4 206/5/4 264/5/4
f 206/5/4 256/5/4 264/5/4
f 257/6/4 258/6/4 265/6/4
f 264/5/4 256/5/4 265/5/4
f 256/6/4 257/6/4 265/6/4
f 265/6/4 258/6/4 266/6/4
f 259/2/4 260/2/4 267/2/4
f 266/6/4 258/6/4 267/6/4
f 258/2/4 259/2/4 267/2/4
f 267/2/4 260/2/4 268/2/4
f 261/3/4 262/3/4 269/3/4
f 268/2/4 260/2/4 269/2/4
f 260/3/4 261/3/4 269/3/4
f 269/3/4 262/3/4 270/3/4
f 270/3/4 262/3/4 271/3/4
f 202/5/4 264/5/4 272/5/4
f 265/6/4 266/6/4 273/6/4
f 272/5/4 264/5/4 273/5/4
f 264/6/4 265/6/4 273/6/4
f 273/6/4 266/6/4 274/6/4
f 267/2/4 268/2/4 275/2/4
f 274/6/4 266/6/4 275/6/4
f 266/2/4 267/2/4 275/2/4
f 275/2/4 268/2/4 276/2/4
f 269/3/4 270/3/4 277/3/4
f 276/2/4 268/2/4 277/2/4
f 268/3/4 269/3/4 277/3/4
f 277/3/4 270/3/4 278/3/4
f 278/3/4 270/3/4 279/3/4
f 273/6/4 274/6/4 280/6/4
f 272/6/4 273/6/4 280/6/4
f 275/2/4 276/2/4 281/2/4
f 280/6/4 274/6/4 281/6/4
f 274/2/4 275/2/4 281/2/4
f 281/2/4 276/2/4 282/2/4
f 277/3/4 278/3/4 283/3/4
f 282/2/4 276/2/4 283/2/4
f 276/3/4 277/3/4 283/3/4
f 283/3/4 278/3/4 284/3/4
f 284/3/4 278/3/4 285/3/4
f 272/6/4 280/6/4 286/6/4
f 286/6/4 280/6/4 287/6/4
f 281/2/4 282/2/4 288/2/4
f 287/6/4 280/6/4 288/6/4
f 280/2/4 281/2/4 288/2/4
f 288/2/4 282/2/4 289/2/4
f 282/3/4 283/3/4 290/3/4
f 289/2/4 282/2/4 290/2/4
f 283/3/4 284/3/4 290/3/4
f 290/3/4 284/3/4 291/3/4
f 291/3/4 284/3/4 292/3/4
f 288/2/4 289/2/4 293/2/4
f 287/2/4 288/2/4 293/2/4
f 290/3/4 291/3/4 294/3/4
f 293/2/4 289/2/4 294/2/4
f 289/3/4 290/3/4 294/3/4
f 294/3/4 291/3/4 295/3/4
f 295/3/4 291/3/4 296/3/4
f 287/2/4 293/2/4 297/2/4
f 293/3/4 294/3/4 298/3/4
f 297/2/4 293/2/4 298/2/4
f 294/3/4 295/3/4 298/3/4
f 298/3/4 295/3/4 299/3/4
f 299/3/4 295/3/4 300/3/4
f 287/2/4 297/2/4 301/2/4
f 297/3/4 298/3/4 302/3/4
f 301/2/4 297/2/4 302/2/4
f 298/3/4 299/3/4 302/3/4
f 302/3/4 299/3/4 303/3/4
f 303/3/4 299/3/4 304/3/4
f 287/2/4 301/2/4 305/2/4
f 301/3/4 302/3/4 306/3/4
f 305/2/4 301/2/4 306/2/4
f 302/3/4 303/3/4 306/3/4
f 306/3/4 303/3/4 307/3/4
f 307/3/4 303/3/4 308/3/4
f 286/3/4 287/3/4 309/3/4
f 287/2/4 305/2/4 309/2/4
f 306/3/4 307/3/4 310/3/4
f 309/2/4 305/2/4 310/2/4
f 305/3/4 306/3/4 310/3/4
f 310/3/4 307/3/4 311/3/4
f 311/3/4 307/3/4 312/3/4
f 309/3/4 310/3/4 313/3/4
f 310/3/4 311/3/4 313/3/4
f 313/3/4 311/3/4 314/3/4
f 286/3/4 309/3/4 315/3/4
f 309/3/4 313/3/4 315/3/4
f 315/3/4 313/3/4 316/3/4
f 323/3/5 318/3/5 317/3/5
f 324/6/5 319/6/5 318/6/5
f 324/3/5 318/3/5 323/3/5
f 325/5/5 320/5/5 319/5/5
f 325/6/5 319/6/5 324/6/5
f 326/6/5 321/6/5 320/6/5
f 326/5/5 320/5/5 325/5/5
f 327/3/5 322/3/5 321/3/5
f 327/6/5 321/6/5 326/6/5
f 328/3/5 322/3/5 327/3/5
f 329/3/6 330/3/6 331/3/6
f 331/3/6 330/3/6 332/3/6
f 333/3/6 334/3/6 335/3/6
f 335/3/6 334/3/6 336/3/6
f 337/3/6 338/3/6 339/3/6
f 339/3/6 338/3/6 340/3/6
f 341/3/6 342/3/6 343/3/6
f 343/3/6 342/3/6 344/3/6
f 345/3/6 346/3/6 347/3/6
f 347/3/6 346/3/6 348/3/6
f 349/3/6 350/3/6 351/3/6
f 351/3/6 350/3/6 352/3/6
f 353/3/6 354/3/6 355/3/6
f 355/3/6 354/3/6 356/3/6
f 357/3/6 358/3/6 359/3/6
f 359/3/6 358/3/6 360/3/6
f 361/3/6 362/3/6 363/3/6
f 363/3/6 362/3/6 364/3/6
f 365/3/6 366/3/6 367/3/6
f 367/3/6 366/3/6 368/3/6
f 369/3/6 370/3/6 371/3/6
f 371/3/6 370/3/6 372/3/6
f 373/3/6 374/3/6 375/3/6
f 375/3/6 374/3/6 376/3/6
f 377/3/6 378/3/6 379/3/6
f 379/3/6 378/3/6 380/3/6
f 381/3/6 382/3/6 383/3/6
f 383/3/6 382/3/6 384/3/6
f 385/3/6 386/3/6 387/3/6
f 387/3/6 386/3/6 388/3/6
f 389/3/6 390/3/6 391/3/6
f 391/3/6 390/3/6 392/3/6
