# MagicaVoxel @ Ephtracy

# material
mtllib Book.mtl
usemtl palette

# normals
vn -1 0 0
vn 1 0 0
vn 0 0 1
vn 0 0 -1
vn 0 -1 0
vn 0 1 0

# texcoords
vt 0.0332031 0.5
vt 0.0371094 0.5
vt 0.701172 0.5
vt 0.896484 0.5
vt 0.900391 0.5
vt 0.904297 0.5

# verts
v -14 0 17
v -14 0 -17
v -14 1 14
v -14 1 13
v -14 1 -10
v -14 1 -11
v -14 2 11
v -14 2 9
v -14 2 1
v -14 2 -2
v -14 2 -4
v -14 2 -6
v -14 2 -11
v -14 2 -14
v -14 3 12
v -14 3 11
v -14 3 10
v -14 3 9
v -14 3 7
v -14 3 4
v -14 3 -1
v -14 3 -2
v -14 3 -5
v -14 3 -6
v -14 3 -10
v -14 3 -13
v -14 4 15
v -14 4 14
v -14 4 13
v -14 4 12
v -14 4 11
v -14 4 6
v -14 4 4
v -14 4 2
v -14 4 1
v -14 4 -0
v -14 4 -1
v -14 4 -2
v -14 4 -5
v -14 4 -7
v -14 4 -10
v -14 4 -11
v -14 5 4
v -14 5 2
v -14 5 -0
v -14 5 -1
v -14 5 -4
v -14 5 -6
v -14 5 -7
v -14 5 -10
v -14 5 -11
v -14 6 11
v -14 6 10
v -14 6 8
v -14 6 7
v -14 6 6
v -14 6 1
v -14 6 -1
v -14 6 -2
v -14 6 -6
v -14 6 -8
v -14 7 15
v -14 7 14
v -14 7 10
v -14 7 8
v -14 7 -0
v -14 7 -1
v -14 7 -8
v -14 7 -10
v -14 7 -13
v -14 7 -14
v -14 8 1
v -14 8 -0
v -14 9 17
v -14 9 -17
v -12 2 17
v -12 2 16
v -12 2 -16
v -12 2 -17
v -12 3 16
v -12 3 -16
v -12 4 16
v -12 4 -16
v -12 5 16
v -12 5 -16
v -12 6 16
v -12 6 -16
v -12 7 17
v -12 7 16
v -12 7 -16
v -12 7 -17
v 11 2 16
v 11 2 13
v 11 2 -12
v 11 2 -16
v 11 3 16
v 11 3 -16
v 11 4 16
v 11 4 -16
v 11 5 16
v 11 5 -16
v 11 6 16
v 11 6 -16
v 11 7 16
v 11 7 13
v 11 7 -13
v 11 7 -16
v 12 0 17
v 12 0 13
v 12 0 -12
v 12 0 -17
v 12 2 17
v 12 2 13
v 12 2 -12
v 12 2 -17
v 12 7 17
v 12 7 13
v 12 7 -13
v 12 7 -17
v 12 9 17
v 12 9 13
v 12 9 -13
v 12 9 -17
v -14 0 17
v -14 9 17
v -12 2 17
v -12 7 17
v -11 0 17
v -11 2 17
v -11 7 17
v -11 9 17
v 8 0 17
v 8 2 17
v 8 7 17
v 8 9 17
v 12 0 17
v 12 2 17
v 12 7 17
v 12 9 17
v -12 2 16
v -12 3 16
v -12 4 16
v -12 5 16
v -12 6 16
v -12 7 16
v -11 2 16
v -11 7 16
v 8 2 16
v 8 7 16
v 11 2 16
v 11 3 16
v 11 4 16
v 11 5 16
v 11 6 16
v 11 7 16
v -12 2 -16
v -12 3 -16
v -12 4 -16
v -12 5 -16
v -12 6 -16
v -12 7 -16
v -11 2 -16
v -11 7 -16
v 8 2 -16
v 8 7 -16
v 11 2 -16
v 11 3 -16
v 11 4 -16
v 11 5 -16
v 11 6 -16
v 11 7 -16
v -14 0 -17
v -14 9 -17
v -12 2 -17
v -12 7 -17
v -11 0 -17
v -11 2 -17
v -11 7 -17
v -11 9 -17
v 8 0 -17
v 8 2 -17
v 8 7 -17
v 8 9 -17
v 12 0 -17
v 12 2 -17
v 12 7 -17
v 12 9 -17
v -14 0 17
v -11 0 17
v 8 0 17
v 12 0 17
v 8 0 16
v 11 0 16
v 11 0 13
v 12 0 13
v 11 0 -12
v 12 0 -12
v 8 0 -16
v 11 0 -16
v -14 0 -17
v -11 0 -17
v 8 0 -17
v 12 0 -17
v -12 7 17
v -11 7 17
v 8 7 17
v 12 7 17
v -12 7 16
v -11 7 16
v 8 7 16
v 11 7 16
v 11 7 13
v 12 7 13
v 11 7 -13
v 12 7 -13
v -12 7 -16
v -11 7 -16
v 8 7 -16
v 11 7 -16
v -12 7 -17
v -11 7 -17
v 8 7 -17
v 12 7 -17
v -12 2 17
v -11 2 17
v 8 2 17
v 12 2 17
v -12 2 16
v -11 2 16
v 8 2 16
v 11 2 16
v 11 2 13
v 12 2 13
v 11 2 -12
v 12 2 -12
v -12 2 -16
v -11 2 -16
v 8 2 -16
v 11 2 -16
v -12 2 -17
v -11 2 -17
v 8 2 -17
v 12 2 -17
v -14 9 17
v -11 9 17
v 8 9 17
v 12 9 17
v -11 9 15
v -10 9 15
v -8 9 15
v -7 9 15
v -6 9 15
v -2 9 15
v -1 9 15
v 0 9 15
v 1 9 15
v 7 9 15
v 8 9 15
v 10 9 15
v -10 9 14
v -8 9 14
v -7 9 14
v -6 9 14
v -5 9 14
v -4 9 14
v -3 9 14
v -2 9 14
v -1 9 14
v 0 9 14
v 1 9 14
v 2 9 14
v 3 9 14
v 7 9 14
v 9 9 14
v -10 9 13
v -9 9 13
v -6 9 13
v -5 9 13
v -4 9 13
v -3 9 13
v 2 9 13
v 3 9 13
v 5 9 13
v 6 9 13
v 9 9 13
v 10 9 13
v 11 9 13
v 12 9 13
v -11 9 12
v -10 9 12
v -9 9 12
v 5 9 12
v 6 9 12
v 10 9 12
v 11 9 12
v -11 9 11
v -10 9 11
v -1 9 10
v 1 9 10
v 8 9 10
v 9 9 10
v -9 9 9
v -6 9 9
v 0 9 9
v 1 9 9
v -9 9 8
v -8 9 8
v -4 9 8
v -2 9 8
v 0 9 8
v 1 9 8
v 4 9 8
v 7 9 8
v -7 9 7
v -6 9 7
v -3 9 7
v -2 9 7
v -1 9 7
v 0 9 7
v 4 9 7
v 6 9 7
v -8 9 6
v -7 9 6
v -6 9 6
v 0 9 6
v 1 9 6
v 2 9 6
v 8 9 6
v 9 9 6
v -9 9 5
v -7 9 5
v 0 9 5
v 1 9 5
v -9 9 4
v -6 9 4
v -4 9 4
v -3 9 4
v -1 9 4
v 0 9 4
v 1 9 4
v 2 9 4
v 7 9 4
v 9 9 4
v -1 9 3
v 1 9 3
v 6 9 3
v 9 9 3
v -2 9 1
v 3 9 1
v -4 9 -0
v -2 9 -0
v 3 9 -0
v 5 9 -0
v -6 9 -1
v -4 9 -1
v -2 9 -1
v 0 9 -1
v 3 9 -1
v 5 9 -1
v 7 9 -1
v -5 9 -2
v -4 9 -2
v -2 9 -2
v 0 9 -2
v 1 9 -2
v 3 9 -2
v 4 9 -2
v 5 9 -2
v 6 9 -2
v -7 9 -3
v -6 9 -3
v -5 9 -3
v -3 9 -3
v -2 9 -3
v 1 9 -3
v 6 9 -3
v 7 9 -3
v 8 9 -3
v -8 9 -5
v -7 9 -5
v -6 9 -5
v -3 9 -5
v -2 9 -5
v 3 9 -5
v 4 9 -5
v 7 9 -5
v 8 9 -5
v 9 9 -5
v -2 9 -6
v 3 9 -6
v -3 9 -7
v -2 9 -7
v 3 9 -7
v 4 9 -7
v -8 9 -10
v -7 9 -10
v -6 9 -10
v 7 9 -10
v 8 9 -10
v 9 9 -10
v -7 9 -12
v -6 9 -12
v -5 9 -12
v -3 9 -12
v -2 9 -12
v 3 9 -12
v 4 9 -12
v 6 9 -12
v 7 9 -12
v 8 9 -12
v -5 9 -13
v -4 9 -13
v 5 9 -13
v 6 9 -13
v 10 9 -13
v 12 9 -13
v -6 9 -14
v -4 9 -14
v -2 9 -14
v 3 9 -14
v 5 9 -14
v 7 9 -14
v -4 9 -15
v -2 9 -15
v 3 9 -15
v 5 9 -15
v 8 9 -15
v 10 9 -15
v -2 9 -16
v 3 9 -16
v -14 9 -17
v -11 9 -17
v 8 9 -17
v 12 9 -17

# faces
f 3/3/1 2/3/1 1/3/1
f 4/3/1 2/3/1 3/3/1
f 5/3/1 2/3/1 4/3/1
f 6/3/1 2/3/1 5/3/1
f 7/3/1 5/3/1 4/3/1
f 8/3/1 5/3/1 7/3/1
f 9/3/1 5/3/1 8/3/1
f 10/3/1 5/3/1 9/3/1
f 11/3/1 5/3/1 10/3/1
f 12/3/1 5/3/1 11/3/1
f 13/3/1 2/3/1 6/3/1
f 13/4/1 6/4/1 5/4/1
f 14/3/1 2/3/1 13/3/1
f 15/3/1 7/3/1 4/3/1
f 16/4/1 8/4/1 7/4/1
f 16/3/1 7/3/1 15/3/1
f 17/4/1 8/4/1 16/4/1
f 18/3/1 9/3/1 8/3/1
f 18/4/1 8/4/1 17/4/1
f 19/3/1 9/3/1 18/3/1
f 20/3/1 9/3/1 19/3/1
f 21/4/1 10/4/1 9/4/1
f 22/3/1 11/3/1 10/3/1
f 22/4/1 10/4/1 21/4/1
f 23/4/1 12/4/1 11/4/1
f 24/3/1 5/3/1 12/3/1
f 24/4/1 12/4/1 23/4/1
f 25/4/1 13/4/1 5/4/1
f 25/3/1 5/3/1 24/3/1
f 25/4/1 14/4/1 13/4/1
f 26/4/1 14/4/1 25/4/1
f 27/3/1 3/3/1 1/3/1
f 28/4/1 4/4/1 3/4/1
f 28/3/1 3/3/1 27/3/1
f 29/3/1 15/3/1 4/3/1
f 29/4/1 4/4/1 28/4/1
f 30/4/1 17/4/1 16/4/1
f 30/3/1 15/3/1 29/3/1
f 30/4/1 16/4/1 15/4/1
f 31/4/1 17/4/1 30/4/1
f 32/4/1 20/4/1 19/4/1
f 33/3/1 9/3/1 20/3/1
f 33/4/1 20/4/1 32/4/1
f 34/3/1 9/3/1 33/3/1
f 35/4/1 21/4/1 9/4/1
f 35/3/1 9/3/1 34/3/1
f 36/4/1 21/4/1 35/4/1
f 37/3/1 22/3/1 21/3/1
f 37/4/1 21/4/1 36/4/1
f 38/3/1 11/3/1 22/3/1
f 38/3/1 22/3/1 37/3/1
f 39/4/1 23/4/1 11/4/1
f 39/3/1 24/3/1 23/3/1
f 39/3/1 26/3/1 25/3/1
f 39/3/1 25/3/1 24/3/1
f 40/3/1 26/3/1 39/3/1
f 41/3/1 26/3/1 40/3/1
f 42/3/1 26/3/1 41/3/1
f 43/4/1 34/4/1 33/4/1
f 43/3/1 33/3/1 32/3/1
f 44/3/1 36/3/1 35/3/1
f 44/4/1 34/4/1 43/4/1
f 44/3/1 35/3/1 34/3/1
f 45/4/1 37/4/1 36/4/1
f 45/3/1 36/3/1 44/3/1
f 45/4/1 38/4/1 37/4/1
f 46/4/1 38/4/1 45/4/1
f 47/3/1 11/3/1 38/3/1
f 47/4/1 40/4/1 39/4/1
f 47/4/1 39/4/1 11/4/1
f 48/4/1 40/4/1 47/4/1
f 49/3/1 41/3/1 40/3/1
f 49/4/1 40/4/1 48/4/1
f 50/4/1 42/4/1 41/4/1
f 50/3/1 41/3/1 49/3/1
f 51/3/1 26/3/1 42/3/1
f 51/4/1 42/4/1 50/4/1
f 52/3/1 29/3/1 28/3/1
f 52/4/1 17/4/1 31/4/1
f 52/3/1 30/3/1 29/3/1
f 52/3/1 31/3/1 30/3/1
f 53/3/1 18/3/1 17/3/1
f 53/4/1 17/4/1 52/4/1
f 53/3/1 19/3/1 18/3/1
f 54/3/1 19/3/1 53/3/1
f 55/4/1 32/4/1 19/4/1
f 55/3/1 19/3/1 54/3/1
f 56/3/1 44/3/1 43/3/1
f 56/4/1 32/4/1 55/4/1
f 56/3/1 46/3/1 45/3/1
f 56/3/1 43/3/1 32/3/1
f 56/3/1 45/3/1 44/3/1
f 57/3/1 46/3/1 56/3/1
f 58/4/1 38/4/1 46/4/1
f 58/3/1 46/3/1 57/3/1
f 59/3/1 47/3/1 38/3/1
f 59/4/1 38/4/1 58/4/1
f 59/3/1 48/3/1 47/3/1
f 60/4/1 50/4/1 49/4/1
f 60/3/1 48/3/1 59/3/1
f 60/4/1 49/4/1 48/4/1
f 61/4/1 50/4/1 60/4/1
f 62/3/1 27/3/1 1/3/1
f 62/4/1 28/4/1 27/4/1
f 63/3/1 53/3/1 52/3/1
f 63/4/1 28/4/1 62/4/1
f 63/3/1 52/3/1 28/3/1
f 64/4/1 54/4/1 53/4/1
f 64/3/1 53/3/1 63/3/1
f 65/3/1 57/3/1 56/3/1
f 65/4/1 54/4/1 64/4/1
f 65/3/1 55/3/1 54/3/1
f 65/3/1 56/3/1 55/3/1
f 66/4/1 58/4/1 57/4/1
f 67/3/1 61/3/1 60/3/1
f 67/4/1 58/4/1 66/4/1
f 67/3/1 59/3/1 58/3/1
f 67/3/1 60/3/1 59/3/1
f 68/4/1 50/4/1 61/4/1
f 68/3/1 61/3/1 67/3/1
f 69/3/1 51/3/1 50/3/1
f 69/4/1 50/4/1 68/4/1
f 70/4/1 14/4/1 26/4/1
f 70/3/1 51/3/1 69/3/1
f 70/3/1 26/3/1 51/3/1
f 71/3/1 2/3/1 14/3/1
f 71/4/1 14/4/1 70/4/1
f 72/3/1 64/3/1 63/3/1
f 72/4/1 66/4/1 57/4/1
f 72/3/1 57/3/1 65/3/1
f 72/3/1 63/3/1 62/3/1
f 72/3/1 65/3/1 64/3/1
f 73/3/1 69/3/1 68/3/1
f 73/4/1 66/4/1 72/4/1
f 73/3/1 67/3/1 66/3/1
f 73/3/1 68/3/1 67/3/1
f 73/3/1 71/3/1 70/3/1
f 73/3/1 70/3/1 69/3/1
f 74/3/1 72/3/1 62/3/1
f 74/3/1 62/3/1 1/3/1
f 74/3/1 73/3/1 72/3/1
f 75/3/1 71/3/1 73/3/1
f 75/3/1 73/3/1 74/3/1
f 75/3/1 2/3/1 71/3/1
f 76/3/2 77/3/2 80/3/2
f 78/3/2 79/3/2 81/3/2
f 76/3/2 80/3/2 82/3/2
f 81/3/2 79/3/2 83/3/2
f 76/3/2 82/3/2 84/3/2
f 83/3/2 79/3/2 85/3/2
f 76/3/2 84/3/2 86/3/2
f 85/3/2 79/3/2 87/3/2
f 76/3/2 86/3/2 88/3/2
f 88/3/2 86/3/2 89/3/2
f 87/3/2 79/3/2 90/3/2
f 90/3/2 79/3/2 91/3/2
f 92/1/2 93/1/2 96/1/2
f 94/1/2 95/1/2 96/1/2
f 93/1/2 94/1/2 96/1/2
f 96/1/2 95/1/2 97/1/2
f 96/2/2 97/2/2 98/2/2
f 98/2/2 97/2/2 99/2/2
f 98/1/2 99/1/2 100/1/2
f 100/1/2 99/1/2 101/1/2
f 100/2/2 101/2/2 102/2/2
f 102/2/2 101/2/2 103/2/2
f 102/1/2 103/1/2 104/1/2
f 104/1/2 103/1/2 105/1/2
f 105/1/2 103/1/2 106/1/2
f 106/1/2 103/1/2 107/1/2
f 108/3/2 109/3/2 112/3/2
f 109/5/2 110/5/2 113/5/2
f 112/3/2 109/3/2 113/3/2
f 110/3/2 111/3/2 114/3/2
f 113/5/2 110/5/2 114/5/2
f 114/3/2 111/3/2 115/3/2
f 116/3/2 117/3/2 120/3/2
f 117/5/2 118/5/2 121/5/2
f 120/3/2 117/3/2 121/3/2
f 118/3/2 119/3/2 122/3/2
f 121/5/2 118/5/2 122/5/2
f 122/3/2 119/3/2 123/3/2
f 126/3/3 125/3/3 124/3/3
f 127/3/3 125/3/3 126/3/3
f 128/3/3 126/3/3 124/3/3
f 129/3/3 126/3/3 128/3/3
f 130/3/3 125/3/3 127/3/3
f 131/3/3 125/3/3 130/3/3
f 132/5/3 129/5/3 128/5/3
f 133/5/3 129/5/3 132/5/3
f 134/6/3 131/6/3 130/6/3
f 135/6/3 131/6/3 134/6/3
f 136/3/3 133/3/3 132/3/3
f 137/3/3 133/3/3 136/3/3
f 138/3/3 135/3/3 134/3/3
f 139/3/3 135/3/3 138/3/3
f 146/1/3 141/1/3 140/1/3
f 147/1/3 145/1/3 144/1/3
f 148/1/3 141/1/3 146/1/3
f 149/1/3 147/1/3 144/1/3
f 150/1/3 141/1/3 148/1/3
f 151/2/3 142/2/3 141/2/3
f 151/1/3 141/1/3 150/1/3
f 152/1/3 143/1/3 142/1/3
f 152/2/3 142/2/3 151/2/3
f 153/2/3 144/2/3 143/2/3
f 153/1/3 143/1/3 152/1/3
f 154/1/3 149/1/3 144/1/3
f 154/2/3 144/2/3 153/2/3
f 155/1/3 149/1/3 154/1/3
f 156/1/4 157/1/4 162/1/4
f 160/1/4 161/1/4 163/1/4
f 162/1/4 157/1/4 164/1/4
f 160/1/4 163/1/4 165/1/4
f 164/1/4 157/1/4 166/1/4
f 157/2/4 158/2/4 167/2/4
f 166/1/4 157/1/4 167/1/4
f 158/1/4 159/1/4 168/1/4
f 167/2/4 158/2/4 168/2/4
f 159/2/4 160/2/4 169/2/4
f 168/1/4 159/1/4 169/1/4
f 160/1/4 165/1/4 170/1/4
f 169/2/4 160/2/4 170/2/4
f 170/1/4 165/1/4 171/1/4
f 172/3/4 173/3/4 174/3/4
f 174/3/4 173/3/4 175/3/4
f 172/3/4 174/3/4 176/3/4
f 176/3/4 174/3/4 177/3/4
f 175/3/4 173/3/4 178/3/4
f 178/3/4 173/3/4 179/3/4
f 176/5/4 177/5/4 180/5/4
f 180/5/4 177/5/4 181/5/4
f 178/5/4 179/5/4 182/5/4
f 182/5/4 179/5/4 183/5/4
f 180/3/4 181/3/4 184/3/4
f 184/3/4 181/3/4 185/3/4
f 182/3/4 183/3/4 186/3/4
f 186/3/4 183/3/4 187/3/4
f 192/5/5 190/5/5 189/5/5
f 192/3/5 191/3/5 190/3/5
f 193/3/5 191/3/5 192/3/5
f 194/5/5 193/5/5 192/5/5
f 194/3/5 191/3/5 193/3/5
f 195/3/5 191/3/5 194/3/5
f 196/5/5 194/5/5 192/5/5
f 196/5/5 195/5/5 194/5/5
f 197/5/5 195/5/5 196/5/5
f 198/5/5 192/5/5 189/5/5
f 198/5/5 196/5/5 192/5/5
f 199/3/5 197/3/5 196/3/5
f 199/5/5 196/5/5 198/5/5
f 200/3/5 189/3/5 188/3/5
f 201/5/5 198/5/5 189/5/5
f 201/3/5 189/3/5 200/3/5
f 202/3/5 199/3/5 198/3/5
f 202/5/5 198/5/5 201/5/5
f 203/3/5 197/3/5 199/3/5
f 203/3/5 199/3/5 202/3/5
f 208/3/5 205/3/5 204/3/5
f 209/6/5 206/6/5 205/6/5
f 209/3/5 205/3/5 208/3/5
f 210/3/5 207/3/5 206/3/5
f 210/6/5 206/6/5 209/6/5
f 211/3/5 207/3/5 210/3/5
f 212/3/5 207/3/5 211/3/5
f 213/3/5 207/3/5 212/3/5
f 214/5/5 213/5/5 212/5/5
f 215/5/5 213/5/5 214/5/5
f 219/3/5 215/3/5 214/3/5
f 220/3/5 217/3/5 216/3/5
f 221/5/5 218/5/5 217/5/5
f 221/3/5 217/3/5 220/3/5
f 222/3/5 219/3/5 218/3/5
f 222/5/5 218/5/5 221/5/5
f 223/3/5 215/3/5 219/3/5
f 223/3/5 219/3/5 222/3/5
f 224/3/6 225/3/6 228/3/6
f 225/5/6 226/5/6 229/5/6
f 228/3/6 225/3/6 229/3/6
f 226/3/6 227/3/6 230/3/6
f 229/5/6 226/5/6 230/5/6
f 230/3/6 227/3/6 231/3/6
f 231/3/6 227/3/6 232/3/6
f 232/3/6 227/3/6 233/3/6
f 232/5/6 233/5/6 234/5/6
f 234/5/6 233/5/6 235/5/6
f 234/3/6 235/3/6 239/3/6
f 236/3/6 237/3/6 240/3/6
f 237/5/6 238/5/6 241/5/6
f 240/3/6 237/3/6 241/3/6
f 238/3/6 239/3/6 242/3/6
f 241/5/6 238/5/6 242/5/6
f 239/3/6 235/3/6 243/3/6
f 242/3/6 239/3/6 243/3/6
f 244/3/6 245/3/6 248/3/6
f 245/6/6 246/6/6 248/6/6
f 248/6/6 246/6/6 249/6/6
f 249/6/6 246/6/6 250/6/6
f 250/6/6 246/6/6 251/6/6
f 251/6/6 246/6/6 252/6/6
f 252/6/6 246/6/6 253/6/6
f 253/6/6 246/6/6 254/6/6
f 254/6/6 246/6/6 255/6/6
f 255/6/6 246/6/6 256/6/6
f 256/6/6 246/6/6 257/6/6
f 246/3/6 247/3/6 258/3/6
f 257/6/6 246/6/6 258/6/6
f 258/3/6 247/3/6 259/3/6
f 248/5/6 249/5/6 260/5/6
f 249/6/6 250/6/6 260/6/6
f 250/5/6 251/5/6 261/5/6
f 260/6/6 250/6/6 261/6/6
f 251/6/6 252/6/6 262/6/6
f 261/5/6 251/5/6 262/5/6
f 252/5/6 253/5/6 263/5/6
f 262/6/6 252/6/6 263/6/6
f 263/5/6 253/5/6 264/5/6
f 264/5/6 253/5/6 265/5/6
f 265/5/6 253/5/6 266/5/6
f 253/6/6 254/6/6 267/6/6
f 266/5/6 253/5/6 267/5/6
f 254/5/6 255/5/6 268/5/6
f 267/6/6 254/6/6 268/6/6
f 255/6/6 256/6/6 269/6/6
f 268/5/6 255/5/6 269/5/6
f 256/5/6 257/5/6 270/5/6
f 269/6/6 256/6/6 270/6/6
f 270/5/6 257/5/6 271/5/6
f 271/5/6 257/5/6 272/5/6
f 258/6/6 259/6/6 273/6/6
f 272/5/6 257/5/6 273/5/6
f 257/6/6 258/6/6 273/6/6
f 273/6/6 259/6/6 274/6/6
f 248/5/6 260/5/6 275/5/6
f 260/5/6 261/5/6 275/5/6
f 261/5/6 262/5/6 275/5/6
f 262/5/6 263/5/6 275/5/6
f 275/5/6 263/5/6 276/5/6
f 263/6/6 264/6/6 277/6/6
f 276/5/6 263/5/6 277/5/6
f 264/5/6 265/5/6 278/5/6
f 277/6/6 264/6/6 278/6/6
f 265/6/6 266/6/6 279/6/6
f 278/5/6 265/5/6 279/5/6
f 268/5/6 269/5/6 280/5/6
f 279/6/6 266/6/6 280/6/6
f 266/5/6 267/5/6 280/5/6
f 267/5/6 268/5/6 280/5/6
f 270/5/6 271/5/6 280/5/6
f 269/5/6 270/5/6 280/5/6
f 271/6/6 272/6/6 281/6/6
f 280/5/6 271/5/6 281/5/6
f 273/5/6 274/5/6 282/5/6
f 281/6/6 272/6/6 282/6/6
f 272/5/6 273/5/6 282/5/6
f 282/5/6 274/5/6 283/5/6
f 283/5/6 274/5/6 284/5/6
f 274/6/6 259/6/6 285/6/6
f 284/5/6 274/5/6 285/5/6
f 259/3/6 247/3/6 286/3/6
f 285/6/6 259/6/6 286/6/6
f 286/3/6 247/3/6 287/3/6
f 287/3/6 247/3/6 288/3/6
f 244/3/6 248/3/6 289/3/6
f 248/5/6 275/5/6 289/5/6
f 275/6/6 276/6/6 290/6/6
f 289/5/6 275/5/6 290/5/6
f 278/5/6 279/5/6 291/5/6
f 290/6/6 276/6/6 291/6/6
f 279/5/6 280/5/6 291/5/6
f 280/5/6 281/5/6 291/5/6
f 277/5/6 278/5/6 291/5/6
f 282/5/6 283/5/6 291/5/6
f 281/5/6 282/5/6 291/5/6
f 276/5/6 277/5/6 291/5/6
f 283/6/6 284/6/6 292/6/6
f 291/5/6 283/5/6 292/5/6
f 284/5/6 285/5/6 293/5/6
f 292/6/6 284/6/6 293/6/6
f 285/5/6 286/5/6 293/5/6
f 286/6/6 287/6/6 294/6/6
f 293/5/6 286/5/6 294/5/6
f 287/5/6 288/5/6 295/5/6
f 294/6/6 287/6/6 295/6/6
f 289/6/6 290/6/6 296/6/6
f 244/3/6 289/3/6 296/3/6
f 291/5/6 292/5/6 297/5/6
f 296/6/6 290/6/6 297/6/6
f 292/5/6 293/5/6 297/5/6
f 294/5/6 295/5/6 297/5/6
f 293/5/6 294/5/6 297/5/6
f 290/5/6 291/5/6 297/5/6
f 296/5/6 297/5/6 298/5/6
f 297/5/6 295/5/6 298/5/6
f 298/5/6 295/5/6 299/5/6
f 299/5/6 295/5/6 300/5/6
f 300/5/6 295/5/6 301/5/6
f 296/5/6 298/5/6 302/5/6
f 302/5/6 298/5/6 303/5/6
f 298/6/6 299/6/6 304/6/6
f 299/5/6 300/5/6 305/5/6
f 304/6/6 299/6/6 305/6/6
f 296/5/6 302/5/6 306/5/6
f 302/6/6 303/6/6 306/6/6
f 306/6/6 303/6/6 307/6/6
f 303/5/6 298/5/6 308/5/6
f 308/5/6 298/5/6 309/5/6
f 298/6/6 304/6/6 310/6/6
f 304/5/6 305/5/6 310/5/6
f 305/5/6 300/5/6 311/5/6
f 310/5/6 305/5/6 311/5/6
f 311/5/6 300/5/6 312/5/6
f 312/5/6 300/5/6 313/5/6
f 307/6/6 303/6/6 314/6/6
f 303/5/6 308/5/6 315/5/6
f 314/6/6 303/6/6 315/6/6
f 308/6/6 309/6/6 316/6/6
f 309/5/6 298/5/6 317/5/6
f 316/6/6 309/6/6 317/6/6
f 298/6/6 310/6/6 318/6/6
f 317/5/6 298/5/6 318/5/6
f 310/6/6 311/6/6 318/6/6
f 318/6/6 311/6/6 319/6/6
f 311/5/6 312/5/6 320/5/6
f 312/6/6 313/6/6 320/6/6
f 320/6/6 313/6/6 321/6/6
f 306/5/6 307/5/6 322/5/6
f 307/6/6 314/6/6 322/6/6
f 314/5/6 315/5/6 323/5/6
f 322/6/6 314/6/6 323/6/6
f 315/5/6 308/5/6 324/5/6
f 323/5/6 315/5/6 324/5/6
f 316/5/6 317/5/6 325/5/6
f 319/6/6 311/6/6 325/6/6
f 318/5/6 319/5/6 325/5/6
f 317/5/6 318/5/6 325/5/6
f 320/5/6 321/5/6 326/5/6
f 325/6/6 311/6/6 326/6/6
f 311/5/6 320/5/6 326/5/6
f 326/5/6 321/5/6 327/5/6
f 313/5/6 300/5/6 328/5/6
f 300/6/6 301/6/6 328/6/6
f 301/5/6 295/5/6 329/5/6
f 328/6/6 301/6/6 329/6/6
f 322/5/6 323/5/6 330/5/6
f 296/5/6 306/5/6 330/5/6
f 306/5/6 322/5/6 330/5/6
f 323/6/6 324/6/6 331/6/6
f 330/5/6 323/5/6 331/5/6
f 316/5/6 325/5/6 332/5/6
f 325/5/6 326/5/6 332/5/6
f 326/6/6 327/6/6 333/6/6
f 332/5/6 326/5/6 333/5/6
f 330/6/6 331/6/6 334/6/6
f 296/5/6 330/5/6 334/5/6
f 324/5/6 308/5/6 335/5/6
f 334/6/6 331/6/6 335/6/6
f 331/6/6 324/6/6 335/6/6
f 308/6/6 316/6/6 336/6/6
f 335/5/6 308/5/6 336/5/6
f 316/5/6 332/5/6 337/5/6
f 336/6/6 316/6/6 337/6/6
f 337/5/6 332/5/6 338/5/6
f 332/6/6 333/6/6 339/6/6
f 338/5/6 332/5/6 339/5/6
f 333/6/6 327/6/6 340/6/6
f 339/6/6 333/6/6 340/6/6
f 327/5/6 321/5/6 341/5/6
f 340/6/6 327/6/6 341/6/6
f 313/5/6 328/5/6 342/5/6
f 328/5/6 329/5/6 342/5/6
f 321/6/6 313/6/6 342/6/6
f 329/5/6 295/5/6 343/5/6
f 342/5/6 329/5/6 343/5/6
f 339/6/6 340/6/6 344/6/6
f 334/5/6 335/5/6 344/5/6
f 335/5/6 336/5/6 344/5/6
f 338/6/6 339/6/6 344/6/6
f 337/5/6 338/5/6 344/5/6
f 336/5/6 337/5/6 344/5/6
f 340/5/6 341/5/6 345/5/6
f 344/6/6 340/6/6 345/6/6
f 341/5/6 321/5/6 346/5/6
f 345/5/6 341/5/6 346/5/6
f 342/6/6 343/6/6 346/6/6
f 321/6/6 342/6/6 346/6/6
f 343/5/6 295/5/6 347/5/6
f 346/6/6 343/6/6 347/6/6
f 344/5/6 345/5/6 348/5/6
f 345/5/6 346/5/6 348/5/6
f 346/5/6 347/5/6 348/5/6
f 334/5/6 344/5/6 348/5/6
f 348/5/6 347/5/6 349/5/6
f 334/5/6 348/5/6 350/5/6
f 348/6/6 349/6/6 351/6/6
f 350/5/6 348/5/6 351/5/6
f 349/5/6 347/5/6 352/5/6
f 351/6/6 349/6/6 352/6/6
f 352/5/6 347/5/6 353/5/6
f 334/5/6 350/5/6 354/5/6
f 350/6/6 351/6/6 355/6/6
f 354/5/6 350/5/6 355/5/6
f 351/5/6 352/5/6 356/5/6
f 355/6/6 351/6/6 356/6/6
f 356/5/6 352/5/6 357/5/6
f 352/6/6 353/6/6 358/6/6
f 357/5/6 352/5/6 358/5/6
f 353/5/6 347/5/6 359/5/6
f 358/6/6 353/6/6 359/6/6
f 359/5/6 347/5/6 360/5/6
f 354/6/6 355/6/6 361/6/6
f 356/5/6 357/5/6 362/5/6
f 361/6/6 355/6/6 362/6/6
f 355/5/6 356/5/6 362/5/6
f 362/5/6 357/5/6 363/5/6
f 357/6/6 358/6/6 364/6/6
f 363/5/6 357/5/6 364/5/6
f 364/6/6 358/6/6 365/6/6
f 358/5/6 359/5/6 366/5/6
f 365/6/6 358/6/6 366/6/6
f 366/5/6 359/5/6 367/5/6
f 359/6/6 360/6/6 368/6/6
f 367/5/6 359/5/6 368/5/6
f 368/6/6 360/6/6 369/6/6
f 334/5/6 354/5/6 370/5/6
f 354/6/6 361/6/6 371/6/6
f 370/5/6 354/5/6 371/5/6
f 362/5/6 363/5/6 372/5/6
f 371/6/6 361/6/6 372/6/6
f 361/5/6 362/5/6 372/5/6
f 372/5/6 363/5/6 373/5/6
f 364/6/6 365/6/6 374/6/6
f 373/5/6 363/5/6 374/5/6
f 363/6/6 364/6/6 374/6/6
f 365/5/6 366/5/6 375/5/6
f 374/6/6 365/6/6 375/6/6
f 369/6/6 360/6/6 376/6/6
f 368/5/6 369/5/6 376/5/6
f 367/5/6 368/5/6 376/5/6
f 360/5/6 347/5/6 377/5/6
f 376/6/6 360/6/6 377/6/6
f 377/5/6 347/5/6 378/5/6
f 334/5/6 370/5/6 379/5/6
f 370/6/6 371/6/6 380/6/6
f 379/5/6 370/5/6 380/5/6
f 372/5/6 373/5/6 381/5/6
f 380/6/6 371/6/6 381/6/6
f 371/5/6 372/5/6 381/5/6
f 373/6/6 374/6/6 382/6/6
f 381/5/6 373/5/6 382/5/6
f 374/5/6 375/5/6 383/5/6
f 382/6/6 374/6/6 383/6/6
f 375/5/6 366/5/6 384/5/6
f 383/5/6 375/5/6 384/5/6
f 366/6/6 367/6/6 384/6/6
f 367/5/6 376/5/6 385/5/6
f 384/6/6 367/6/6 385/6/6
f 376/5/6 377/5/6 385/5/6
f 377/6/6 378/6/6 386/6/6
f 385/5/6 377/5/6 386/5/6
f 378/5/6 347/5/6 387/5/6
f 386/6/6 378/6/6 387/6/6
f 347/5/6 295/5/6 388/5/6
f 387/5/6 347/5/6 388/5/6
f 382/5/6 383/5/6 389/5/6
f 383/6/6 384/6/6 389/6/6
f 380/5/6 381/5/6 389/5/6
f 381/5/6 382/5/6 389/5/6
f 386/5/6 387/5/6 390/5/6
f 389/6/6 384/6/6 390/6/6
f 385/5/6 386/5/6 390/5/6
f 384/5/6 385/5/6 390/5/6
f 380/5/6 389/5/6 391/5/6
f 389/5/6 390/5/6 391/5/6
f 391/5/6 390/5/6 392/5/6
f 390/5/6 387/5/6 393/5/6
f 392/5/6 390/5/6 393/5/6
f 393/5/6 387/5/6 394/5/6
f 334/5/6 379/5/6 395/5/6
f 379/6/6 380/6/6 395/6/6
f 380/5/6 391/5/6 396/5/6
f 395/6/6 380/6/6 396/6/6
f 396/5/6 391/5/6 397/5/6
f 394/5/6 387/5/6 398/5/6
f 387/6/6 388/6/6 399/6/6
f 398/5/6 387/5/6 399/5/6
f 388/5/6 295/5/6 400/5/6
f 399/6/6 388/6/6 400/6/6
f 395/5/6 396/5/6 401/5/6
f 396/6/6 397/6/6 401/6/6
f 397/5/6 391/5/6 402/5/6
f 401/6/6 397/6/6 402/6/6
f 402/5/6 391/5/6 403/5/6
f 391/6/6 392/6/6 404/6/6
f 403/5/6 391/5/6 404/5/6
f 392/5/6 393/5/6 405/5/6
f 404/6/6 392/6/6 405/6/6
f 393/6/6 394/6/6 406/6/6
f 405/5/6 393/5/6 406/5/6
f 394/5/6 398/5/6 407/5/6
f 406/6/6 394/6/6 407/6/6
f 407/5/6 398/5/6 408/5/6
f 398/6/6 399/6/6 409/6/6
f 408/5/6 398/5/6 409/5/6
f 399/5/6 400/5/6 410/5/6
f 409/6/6 399/6/6 410/6/6
f 402/6/6 403/6/6 411/6/6
f 407/5/6 408/5/6 411/5/6
f 405/5/6 406/5/6 411/5/6
f 406/5/6 407/5/6 411/5/6
f 404/5/6 405/5/6 411/5/6
f 403/5/6 404/5/6 411/5/6
f 411/5/6 408/5/6 412/5/6
f 412/5/6 408/5/6 413/5/6
f 408/6/6 409/6/6 414/6/6
f 413/5/6 408/5/6 414/5/6
f 410/5/6 400/5/6 415/5/6
f 409/5/6 410/5/6 415/5/6
f 400/5/6 295/5/6 415/5/6
f 295/5/6 288/5/6 416/5/6
f 415/5/6 295/5/6 416/5/6
f 401/5/6 402/5/6 417/5/6
f 411/6/6 412/6/6 417/6/6
f 402/6/6 411/6/6 417/6/6
f 412/5/6 413/5/6 418/5/6
f 417/6/6 412/6/6 418/6/6
f 418/5/6 413/5/6 419/5/6
f 419/5/6 413/5/6 420/5/6
f 413/6/6 414/6/6 421/6/6
f 420/5/6 413/5/6 421/5/6
f 409/5/6 415/5/6 422/5/6
f 421/6/6 414/6/6 422/6/6
f 414/6/6 409/6/6 422/6/6
f 418/6/6 419/6/6 423/6/6
f 417/5/6 418/5/6 423/5/6
f 419/5/6 420/5/6 424/5/6
f 423/6/6 419/6/6 424/6/6
f 420/6/6 421/6/6 425/6/6
f 424/5/6 420/5/6 425/5/6
f 421/5/6 422/5/6 426/5/6
f 425/6/6 421/6/6 426/6/6
f 422/5/6 415/5/6 427/5/6
f 426/5/6 422/5/6 427/5/6
f 415/3/6 416/3/6 428/3/6
f 427/5/6 415/5/6 428/5/6
f 423/5/6 424/5/6 429/5/6
f 424/6/6 425/6/6 429/6/6
f 425/5/6 426/5/6 430/5/6
f 429/6/6 425/6/6 430/6/6
f 426/5/6 427/5/6 430/5/6
f 244/3/6 296/3/6 431/3/6
f 423/5/6 429/5/6 432/5/6
f 431/3/6 296/3/6 432/3/6
f 296/5/6 334/5/6 432/5/6
f 429/5/6 430/5/6 432/5/6
f 417/5/6 423/5/6 432/5/6
f 334/5/6 395/5/6 432/5/6
f 401/5/6 417/5/6 432/5/6
f 395/5/6 401/5/6 432/5/6
f 430/5/6 427/5/6 433/5/6
f 432/5/6 430/5/6 433/5/6
f 427/3/6 428/3/6 433/3/6
f 428/3/6 416/3/6 434/3/6
f 433/3/6 428/3/6 434/3/6
