# MagicaVoxel @ Ephtracy

# group
o 

# material
mtllib Shield.mtl
usemtl palette

# normals
vn -1 0 0
vn 1 0 0
vn 0 0 1
vn 0 0 -1
vn 0 -1 0
vn 0 1 0

# texcoords
vt 0.978516 0.5
vt 0.990234 0.5

# verts
v -2.1 3.5 -0.2
v -2.1 3.5 -0.6
v -2.1 9.3 -0.2
v -2.1 9.3 -0.6
v -1.5 7.3 2.83122e-07
v -1.5 7.3 -0.2
v -1.5 8.4 2.83122e-07
v -1.5 8.4 -0.2
v -1.4 7.1 2.83122e-07
v -1.4 7.1 -0.2
v -1.4 7.3 2.83122e-07
v -1.4 7.3 -0.2
v -1.4 8.4 2.83122e-07
v -1.4 8.4 -0.2
v -1.4 8.6 2.83122e-07
v -1.4 8.6 -0.2
v -1.3 7.2 0.1
v -1.3 7.2 2.83122e-07
v -1.3 7.3 0.1
v -1.3 7.3 2.83122e-07
v -1.3 8.4 0.1
v -1.3 8.4 2.83122e-07
v -1.3 8.5 0.1
v -1.3 8.5 2.83122e-07
v -1.2 3.4 -0.2
v -1.2 3.4 -0.6
v -1.2 3.5 -0.2
v -1.2 3.5 -0.6
v -1.1 7 2.83122e-07
v -1.1 7 -0.2
v -1.1 7.1 2.83122e-07
v -1.1 7.1 -0.2
v -1.1 8.6 2.83122e-07
v -1.1 8.6 -0.2
v -1.1 8.7 2.83122e-07
v -1.1 8.7 -0.2
v -0.7 3.3 -0.2
v -0.7 3.3 -0.6
v -0.7 3.4 -0.2
v -0.7 3.4 -0.6
v -0.4 6.9 2.83122e-07
v -0.4 6.9 -0.2
v -0.4 7 2.83122e-07
v -0.4 7 -0.2
v -0.1 7 0.1
v -0.1 7 2.83122e-07
v -0.1 7.1 0.1
v -0.1 7.1 2.83122e-07
v -0.1 8.5 0.1
v -0.1 8.5 2.83122e-07
v -0.1 8.6 0.1
v -0.1 8.6 2.83122e-07
v 0.3 7.2 2.83122e-07
v 0.3 7.2 -0.6
v 0.3 7.4 2.83122e-07
v 0.3 7.4 -0.6
v 1.1 7.4 2.83122e-07
v 1.1 7.4 -0.6
v 1.1 8.3 2.83122e-07
v 1.1 8.3 -0.6
v 1.2 7.2 0.1
v 1.2 7.2 2.83122e-07
v 1.2 7.3 0.1
v 1.2 7.3 2.83122e-07
v 1.2 8.4 0.1
v 1.2 8.4 2.83122e-07
v 1.2 8.5 0.1
v 1.2 8.5 2.83122e-07
v -1.2 7.2 0.1
v -1.2 7.2 2.83122e-07
v -1.2 7.3 0.1
v -1.2 7.3 2.83122e-07
v -1.2 8.4 0.1
v -1.2 8.4 2.83122e-07
v -1.2 8.5 0.1
v -1.2 8.5 2.83122e-07
v -1.1 7.4 2.83122e-07
v -1.1 7.4 -0.6
v -1.1 8.3 2.83122e-07
v -1.1 8.3 -0.6
v -0.3 7.2 2.83122e-07
v -0.3 7.2 -0.6
v -0.3 7.4 2.83122e-07
v -0.3 7.4 -0.6
v 0.0999997 7 0.1
v 0.0999997 7 2.83122e-07
v 0.0999997 7.1 0.1
v 0.0999997 7.1 2.83122e-07
v 0.0999997 8.5 0.1
v 0.0999997 8.5 2.83122e-07
v 0.0999997 8.6 0.1
v 0.0999997 8.6 2.83122e-07
v 0.4 6.9 2.83122e-07
v 0.4 6.9 -0.2
v 0.4 7 2.83122e-07
v 0.4 7 -0.2
v 0.7 3.3 -0.2
v 0.7 3.3 -0.6
v 0.7 3.4 -0.2
v 0.7 3.4 -0.6
v 1.1 7 2.83122e-07
v 1.1 7 -0.2
v 1.1 7.1 2.83122e-07
v 1.1 7.1 -0.2
v 1.1 8.6 2.83122e-07
v 1.1 8.6 -0.2
v 1.1 8.7 2.83122e-07
v 1.1 8.7 -0.2
v 1.2 3.4 -0.2
v 1.2 3.4 -0.6
v 1.2 3.5 -0.2
v 1.2 3.5 -0.6
v 1.3 7.2 0.1
v 1.3 7.2 2.83122e-07
v 1.3 7.3 0.1
v 1.3 7.3 2.83122e-07
v 1.3 8.4 0.1
v 1.3 8.4 2.83122e-07
v 1.3 8.5 0.1
v 1.3 8.5 2.83122e-07
v 1.4 7.1 2.83122e-07
v 1.4 7.1 -0.2
v 1.4 7.3 2.83122e-07
v 1.4 7.3 -0.2
v 1.4 8.4 2.83122e-07
v 1.4 8.4 -0.2
v 1.4 8.6 2.83122e-07
v 1.4 8.6 -0.2
v 1.5 7.3 2.83122e-07
v 1.5 7.3 -0.2
v 1.5 8.4 2.83122e-07
v 1.5 8.4 -0.2
v 2.1 3.5 -0.2
v 2.1 3.5 -0.6
v 2.1 9.3 -0.2
v 2.1 9.3 -0.6
v -1.3 7.2 0.1
v -1.3 7.3 0.1
v -1.3 8.4 0.1
v -1.3 8.5 0.1
v -1.2 7.2 0.1
v -1.2 7.3 0.1
v -1.2 8.4 0.1
v -1.2 8.5 0.1
v -0.1 7 0.1
v -0.1 7.1 0.1
v -0.1 8.5 0.1
v -0.1 8.6 0.1
v 0.0999997 7 0.1
v 0.0999997 7.1 0.1
v 0.0999997 8.5 0.1
v 0.0999997 8.6 0.1
v 1.2 7.2 0.1
v 1.2 7.3 0.1
v 1.2 8.4 0.1
v 1.2 8.5 0.1
v 1.3 7.2 0.1
v 1.3 7.3 0.1
v 1.3 8.4 0.1
v 1.3 8.5 0.1
v -1.5 7.3 2.83122e-07
v -1.5 8.4 2.83122e-07
v -1.4 7.1 2.83122e-07
v -1.4 7.3 2.83122e-07
v -1.4 8.4 2.83122e-07
v -1.4 8.6 2.83122e-07
v -1.3 7.2 2.83122e-07
v -1.3 7.3 2.83122e-07
v -1.3 8.4 2.83122e-07
v -1.3 8.5 2.83122e-07
v -1.2 7.2 2.83122e-07
v -1.2 7.3 2.83122e-07
v -1.2 8.4 2.83122e-07
v -1.2 8.5 2.83122e-07
v -1.1 7 2.83122e-07
v -1.1 7.1 2.83122e-07
v -1.1 7.4 2.83122e-07
v -1.1 8.3 2.83122e-07
v -1.1 8.6 2.83122e-07
v -1.1 8.7 2.83122e-07
v -0.4 6.9 2.83122e-07
v -0.4 7 2.83122e-07
v -0.3 7.2 2.83122e-07
v -0.3 7.4 2.83122e-07
v -0.1 7 2.83122e-07
v -0.1 7.1 2.83122e-07
v -0.1 8.5 2.83122e-07
v -0.1 8.6 2.83122e-07
v 0.0999997 7 2.83122e-07
v 0.0999997 7.1 2.83122e-07
v 0.0999997 8.5 2.83122e-07
v 0.0999997 8.6 2.83122e-07
v 0.3 7.2 2.83122e-07
v 0.3 7.4 2.83122e-07
v 0.4 6.9 2.83122e-07
v 0.4 7 2.83122e-07
v 1.1 7 2.83122e-07
v 1.1 7.1 2.83122e-07
v 1.1 7.4 2.83122e-07
v 1.1 8.3 2.83122e-07
v 1.1 8.6 2.83122e-07
v 1.1 8.7 2.83122e-07
v 1.2 7.2 2.83122e-07
v 1.2 7.3 2.83122e-07
v 1.2 8.4 2.83122e-07
v 1.2 8.5 2.83122e-07
v 1.3 7.2 2.83122e-07
v 1.3 7.3 2.83122e-07
v 1.3 8.4 2.83122e-07
v 1.3 8.5 2.83122e-07
v 1.4 7.1 2.83122e-07
v 1.4 7.3 2.83122e-07
v 1.4 8.4 2.83122e-07
v 1.4 8.6 2.83122e-07
v 1.5 7.3 2.83122e-07
v 1.5 8.4 2.83122e-07
v -2.1 3.5 -0.2
v -2.1 9.3 -0.2
v -1.5 7.3 -0.2
v -1.5 8.4 -0.2
v -1.4 7.1 -0.2
v -1.4 7.3 -0.2
v -1.4 8.4 -0.2
v -1.4 8.6 -0.2
v -1.2 3.4 -0.2
v -1.2 3.5 -0.2
v -1.1 7 -0.2
v -1.1 7.1 -0.2
v -1.1 8.6 -0.2
v -1.1 8.7 -0.2
v -0.7 3.3 -0.2
v -0.7 3.4 -0.2
v -0.4 6.9 -0.2
v -0.4 7 -0.2
v 0.4 6.9 -0.2
v 0.4 7 -0.2
v 0.7 3.3 -0.2
v 0.7 3.4 -0.2
v 1.1 7 -0.2
v 1.1 7.1 -0.2
v 1.1 8.6 -0.2
v 1.1 8.7 -0.2
v 1.2 3.4 -0.2
v 1.2 3.5 -0.2
v 1.4 7.1 -0.2
v 1.4 7.3 -0.2
v 1.4 8.4 -0.2
v 1.4 8.6 -0.2
v 1.5 7.3 -0.2
v 1.5 8.4 -0.2
v 2.1 3.5 -0.2
v 2.1 9.3 -0.2
v -2.1 3.5 -0.6
v -2.1 9.3 -0.6
v -1.2 3.4 -0.6
v -1.2 3.5 -0.6
v -1.1 7.4 -0.6
v -1.1 8.3 -0.6
v -0.7 3.3 -0.6
v -0.7 3.4 -0.6
v -0.3 7.2 -0.6
v -0.3 7.4 -0.6
v 0.3 7.2 -0.6
v 0.3 7.4 -0.6
v 0.7 3.3 -0.6
v 0.7 3.4 -0.6
v 1.1 7.4 -0.6
v 1.1 8.3 -0.6
v 1.2 3.4 -0.6
v 1.2 3.5 -0.6
v 2.1 3.5 -0.6
v 2.1 9.3 -0.6
v -0.7 3.3 -0.2
v 0.7 3.3 -0.2
v -0.7 3.3 -0.6
v 0.7 3.3 -0.6
v -1.2 3.4 -0.2
v -0.7 3.4 -0.2
v 0.7 3.4 -0.2
v 1.2 3.4 -0.2
v -1.2 3.4 -0.6
v -0.7 3.4 -0.6
v 0.7 3.4 -0.6
v 1.2 3.4 -0.6
v -2.1 3.5 -0.2
v -1.2 3.5 -0.2
v 1.2 3.5 -0.2
v 2.1 3.5 -0.2
v -2.1 3.5 -0.6
v -1.2 3.5 -0.6
v 1.2 3.5 -0.6
v 2.1 3.5 -0.6
v -0.4 6.9 2.83122e-07
v 0.4 6.9 2.83122e-07
v -0.4 6.9 -0.2
v 0.4 6.9 -0.2
v -0.1 7 0.1
v 0.0999997 7 0.1
v -1.1 7 2.83122e-07
v -0.4 7 2.83122e-07
v -0.1 7 2.83122e-07
v 0.0999997 7 2.83122e-07
v 0.4 7 2.83122e-07
v 1.1 7 2.83122e-07
v -1.1 7 -0.2
v -0.4 7 -0.2
v 0.4 7 -0.2
v 1.1 7 -0.2
v -1.4 7.1 2.83122e-07
v -1.1 7.1 2.83122e-07
v 1.1 7.1 2.83122e-07
v 1.4 7.1 2.83122e-07
v -1.4 7.1 -0.2
v -1.1 7.1 -0.2
v 1.1 7.1 -0.2
v 1.4 7.1 -0.2
v -1.3 7.2 0.1
v -1.2 7.2 0.1
v 1.2 7.2 0.1
v 1.3 7.2 0.1
v -1.3 7.2 2.83122e-07
v -1.2 7.2 2.83122e-07
v 1.2 7.2 2.83122e-07
v 1.3 7.2 2.83122e-07
v -1.5 7.3 2.83122e-07
v -1.4 7.3 2.83122e-07
v 1.4 7.3 2.83122e-07
v 1.5 7.3 2.83122e-07
v -1.5 7.3 -0.2
v -1.4 7.3 -0.2
v 1.4 7.3 -0.2
v 1.5 7.3 -0.2
v -1.1 8.3 2.83122e-07
v 1.1 8.3 2.83122e-07
v -1.1 8.3 -0.6
v 1.1 8.3 -0.6
v -1.3 8.4 0.1
v -1.2 8.4 0.1
v 1.2 8.4 0.1
v 1.3 8.4 0.1
v -1.3 8.4 2.83122e-07
v -1.2 8.4 2.83122e-07
v 1.2 8.4 2.83122e-07
v 1.3 8.4 2.83122e-07
v -0.1 8.5 0.1
v 0.0999997 8.5 0.1
v -0.1 8.5 2.83122e-07
v 0.0999997 8.5 2.83122e-07
v -0.1 7.1 0.1
v 0.0999997 7.1 0.1
v -0.1 7.1 2.83122e-07
v 0.0999997 7.1 2.83122e-07
v -0.3 7.2 2.83122e-07
v 0.3 7.2 2.83122e-07
v -0.3 7.2 -0.6
v 0.3 7.2 -0.6
v -1.3 7.3 0.1
v -1.2 7.3 0.1
v 1.2 7.3 0.1
v 1.3 7.3 0.1
v -1.3 7.3 2.83122e-07
v -1.2 7.3 2.83122e-07
v 1.2 7.3 2.83122e-07
v 1.3 7.3 2.83122e-07
v -1.1 7.4 2.83122e-07
v -0.3 7.4 2.83122e-07
v 0.3 7.4 2.83122e-07
v 1.1 7.4 2.83122e-07
v -1.1 7.4 -0.6
v -0.3 7.4 -0.6
v 0.3 7.4 -0.6
v 1.1 7.4 -0.6
v -1.5 8.4 2.83122e-07
v -1.4 8.4 2.83122e-07
v 1.4 8.4 2.83122e-07
v 1.5 8.4 2.83122e-07
v -1.5 8.4 -0.2
v -1.4 8.4 -0.2
v 1.4 8.4 -0.2
v 1.5 8.4 -0.2
v -1.3 8.5 0.1
v -1.2 8.5 0.1
v 1.2 8.5 0.1
v 1.3 8.5 0.1
v -1.3 8.5 2.83122e-07
v -1.2 8.5 2.83122e-07
v 1.2 8.5 2.83122e-07
v 1.3 8.5 2.83122e-07
v -0.1 8.6 0.1
v 0.0999997 8.6 0.1
v -1.4 8.6 2.83122e-07
v -1.1 8.6 2.83122e-07
v -0.1 8.6 2.83122e-07
v 0.0999997 8.6 2.83122e-07
v 1.1 8.6 2.83122e-07
v 1.4 8.6 2.83122e-07
v -1.4 8.6 -0.2
v -1.1 8.6 -0.2
v 1.1 8.6 -0.2
v 1.4 8.6 -0.2
v -1.1 8.7 2.83122e-07
v 1.1 8.7 2.83122e-07
v -1.1 8.7 -0.2
v 1.1 8.7 -0.2
v -2.1 9.3 -0.2
v 2.1 9.3 -0.2
v -2.1 9.3 -0.6
v 2.1 9.3 -0.6

# faces
f 3/2/1 2/2/1 1/2/1
f 4/2/1 2/2/1 3/2/1
f 7/2/1 6/2/1 5/2/1
f 8/2/1 6/2/1 7/2/1
f 11/2/1 10/2/1 9/2/1
f 12/2/1 10/2/1 11/2/1
f 15/2/1 14/2/1 13/2/1
f 16/2/1 14/2/1 15/2/1
f 19/1/1 18/1/1 17/1/1
f 20/1/1 18/1/1 19/1/1
f 23/1/1 22/1/1 21/1/1
f 24/1/1 22/1/1 23/1/1
f 27/2/1 26/2/1 25/2/1
f 28/2/1 26/2/1 27/2/1
f 31/2/1 30/2/1 29/2/1
f 32/2/1 30/2/1 31/2/1
f 35/2/1 34/2/1 33/2/1
f 36/2/1 34/2/1 35/2/1
f 39/2/1 38/2/1 37/2/1
f 40/2/1 38/2/1 39/2/1
f 43/2/1 42/2/1 41/2/1
f 44/2/1 42/2/1 43/2/1
f 47/1/1 46/1/1 45/1/1
f 48/1/1 46/1/1 47/1/1
f 51/1/1 50/1/1 49/1/1
f 52/1/1 50/1/1 51/1/1
f 55/2/1 54/2/1 53/2/1
f 56/2/1 54/2/1 55/2/1
f 59/2/1 58/2/1 57/2/1
f 60/2/1 58/2/1 59/2/1
f 63/1/1 62/1/1 61/1/1
f 64/1/1 62/1/1 63/1/1
f 67/1/1 66/1/1 65/1/1
f 68/1/1 66/1/1 67/1/1
f 69/1/2 70/1/2 71/1/2
f 71/1/2 70/1/2 72/1/2
f 73/1/2 74/1/2 75/1/2
f 75/1/2 74/1/2 76/1/2
f 77/2/2 78/2/2 79/2/2
f 79/2/2 78/2/2 80/2/2
f 81/2/2 82/2/2 83/2/2
f 83/2/2 82/2/2 84/2/2
f 85/1/2 86/1/2 87/1/2
f 87/1/2 86/1/2 88/1/2
f 89/1/2 90/1/2 91/1/2
f 91/1/2 90/1/2 92/1/2
f 93/2/2 94/2/2 95/2/2
f 95/2/2 94/2/2 96/2/2
f 97/2/2 98/2/2 99/2/2
f 99/2/2 98/2/2 100/2/2
f 101/2/2 102/2/2 103/2/2
f 103/2/2 102/2/2 104/2/2
f 105/2/2 106/2/2 107/2/2
f 107/2/2 106/2/2 108/2/2
f 109/2/2 110/2/2 111/2/2
f 111/2/2 110/2/2 112/2/2
f 113/1/2 114/1/2 115/1/2
f 115/1/2 114/1/2 116/1/2
f 117/1/2 118/1/2 119/1/2
f 119/1/2 118/1/2 120/1/2
f 121/2/2 122/2/2 123/2/2
f 123/2/2 122/2/2 124/2/2
f 125/2/2 126/2/2 127/2/2
f 127/2/2 126/2/2 128/2/2
f 129/2/2 130/2/2 131/2/2
f 131/2/2 130/2/2 132/2/2
f 133/2/2 134/2/2 135/2/2
f 135/2/2 134/2/2 136/2/2
f 141/1/3 138/1/3 137/1/3
f 142/1/3 138/1/3 141/1/3
f 143/1/3 140/1/3 139/1/3
f 144/1/3 140/1/3 143/1/3
f 149/1/3 146/1/3 145/1/3
f 150/1/3 146/1/3 149/1/3
f 151/1/3 148/1/3 147/1/3
f 152/1/3 148/1/3 151/1/3
f 157/1/3 154/1/3 153/1/3
f 158/1/3 154/1/3 157/1/3
f 159/1/3 156/1/3 155/1/3
f 160/1/3 156/1/3 159/1/3
f 164/2/3 162/2/3 161/2/3
f 165/2/3 162/2/3 164/2/3
f 167/2/3 164/2/3 163/2/3
f 167/2/3 166/2/3 165/2/3
f 167/2/3 165/2/3 164/2/3
f 168/2/3 166/2/3 167/2/3
f 169/2/3 166/2/3 168/2/3
f 170/2/3 166/2/3 169/2/3
f 171/2/3 167/2/3 163/2/3
f 172/2/3 169/2/3 168/2/3
f 173/2/3 169/2/3 172/2/3
f 174/2/3 166/2/3 170/2/3
f 176/2/3 173/2/3 172/2/3
f 176/2/3 174/2/3 173/2/3
f 176/2/3 171/2/3 163/2/3
f 176/2/3 172/2/3 171/2/3
f 177/2/3 174/2/3 176/2/3
f 178/2/3 174/2/3 177/2/3
f 179/2/3 166/2/3 174/2/3
f 179/2/3 174/2/3 178/2/3
f 182/2/3 176/2/3 175/2/3
f 182/2/3 177/2/3 176/2/3
f 183/2/3 177/2/3 182/2/3
f 183/2/3 182/2/3 181/2/3
f 184/2/3 177/2/3 183/2/3
f 185/2/3 183/2/3 181/2/3
f 186/2/3 183/2/3 185/2/3
f 187/2/3 180/2/3 179/2/3
f 187/2/3 179/2/3 178/2/3
f 188/2/3 180/2/3 187/2/3
f 189/2/3 185/2/3 181/2/3
f 190/2/3 183/2/3 186/2/3
f 191/2/3 187/2/3 178/2/3
f 192/2/3 180/2/3 188/2/3
f 193/2/3 190/2/3 189/2/3
f 193/2/3 183/2/3 190/2/3
f 195/2/3 189/2/3 181/2/3
f 195/2/3 194/2/3 193/2/3
f 195/2/3 193/2/3 189/2/3
f 196/2/3 194/2/3 195/2/3
f 197/2/3 194/2/3 196/2/3
f 198/2/3 194/2/3 197/2/3
f 199/2/3 194/2/3 198/2/3
f 200/2/3 191/2/3 178/2/3
f 200/2/3 192/2/3 191/2/3
f 201/2/3 180/2/3 192/2/3
f 201/2/3 192/2/3 200/2/3
f 202/2/3 180/2/3 201/2/3
f 203/2/3 199/2/3 198/2/3
f 203/2/3 201/2/3 200/2/3
f 203/2/3 200/2/3 199/2/3
f 204/2/3 201/2/3 203/2/3
f 205/2/3 201/2/3 204/2/3
f 206/2/3 201/2/3 205/2/3
f 207/2/3 203/2/3 198/2/3
f 208/2/3 205/2/3 204/2/3
f 209/2/3 205/2/3 208/2/3
f 210/2/3 201/2/3 206/2/3
f 211/2/3 209/2/3 208/2/3
f 211/2/3 210/2/3 209/2/3
f 211/2/3 207/2/3 198/2/3
f 211/2/3 208/2/3 207/2/3
f 212/2/3 210/2/3 211/2/3
f 213/2/3 210/2/3 212/2/3
f 214/2/3 201/2/3 210/2/3
f 214/2/3 210/2/3 213/2/3
f 215/2/3 213/2/3 212/2/3
f 216/2/3 213/2/3 215/2/3
f 219/2/3 218/2/3 217/2/3
f 220/2/3 218/2/3 219/2/3
f 221/2/3 219/2/3 217/2/3
f 222/2/3 219/2/3 221/2/3
f 223/2/3 218/2/3 220/2/3
f 224/2/3 218/2/3 223/2/3
f 226/2/3 221/2/3 217/2/3
f 227/2/3 221/2/3 226/2/3
f 227/2/3 226/2/3 225/2/3
f 228/2/3 221/2/3 227/2/3
f 229/2/3 218/2/3 224/2/3
f 230/2/3 218/2/3 229/2/3
f 232/2/3 227/2/3 225/2/3
f 233/2/3 227/2/3 232/2/3
f 233/2/3 232/2/3 231/2/3
f 234/2/3 227/2/3 233/2/3
f 235/2/3 233/2/3 231/2/3
f 237/2/3 235/2/3 231/2/3
f 237/2/3 236/2/3 235/2/3
f 238/2/3 236/2/3 237/2/3
f 239/2/3 236/2/3 238/2/3
f 242/2/3 218/2/3 230/2/3
f 243/2/3 240/2/3 239/2/3
f 243/2/3 239/2/3 238/2/3
f 244/2/3 240/2/3 243/2/3
f 245/2/3 240/2/3 244/2/3
f 248/2/3 242/2/3 241/2/3
f 249/2/3 246/2/3 245/2/3
f 250/2/3 248/2/3 247/2/3
f 251/2/3 249/2/3 245/2/3
f 251/2/3 250/2/3 249/2/3
f 251/2/3 245/2/3 244/2/3
f 252/2/3 248/2/3 250/2/3
f 252/2/3 250/2/3 251/2/3
f 252/2/3 218/2/3 242/2/3
f 252/2/3 242/2/3 248/2/3
f 253/2/4 254/2/4 256/2/4
f 256/2/4 254/2/4 257/2/4
f 255/2/4 256/2/4 257/2/4
f 257/2/4 254/2/4 258/2/4
f 255/2/4 257/2/4 260/2/4
f 260/2/4 257/2/4 261/2/4
f 259/2/4 260/2/4 261/2/4
f 261/2/4 257/2/4 262/2/4
f 259/2/4 261/2/4 263/2/4
f 259/2/4 263/2/4 265/2/4
f 263/2/4 264/2/4 265/2/4
f 265/2/4 264/2/4 266/2/4
f 266/2/4 264/2/4 267/2/4
f 258/2/4 254/2/4 268/2/4
f 266/2/4 267/2/4 269/2/4
f 267/2/4 268/2/4 269/2/4
f 269/2/4 268/2/4 270/2/4
f 270/2/4 268/2/4 271/2/4
f 268/2/4 254/2/4 272/2/4
f 271/2/4 268/2/4 272/2/4
f 275/2/5 274/2/5 273/2/5
f 276/2/5 274/2/5 275/2/5
f 281/2/5 278/2/5 277/2/5
f 282/2/5 278/2/5 281/2/5
f 283/2/5 280/2/5 279/2/5
f 284/2/5 280/2/5 283/2/5
f 289/2/5 286/2/5 285/2/5
f 290/2/5 286/2/5 289/2/5
f 291/2/5 288/2/5 287/2/5
f 292/2/5 288/2/5 291/2/5
f 295/2/5 294/2/5 293/2/5
f 296/2/5 294/2/5 295/2/5
f 301/1/5 298/1/5 297/1/5
f 302/1/5 298/1/5 301/1/5
f 305/2/5 300/2/5 299/2/5
f 306/2/5 300/2/5 305/2/5
f 307/2/5 304/2/5 303/2/5
f 308/2/5 304/2/5 307/2/5
f 313/2/5 310/2/5 309/2/5
f 314/2/5 310/2/5 313/2/5
f 315/2/5 312/2/5 311/2/5
f 316/2/5 312/2/5 315/2/5
f 321/1/5 318/1/5 317/1/5
f 322/1/5 318/1/5 321/1/5
f 323/1/5 320/1/5 319/1/5
f 324/1/5 320/1/5 323/1/5
f 329/2/5 326/2/5 325/2/5
f 330/2/5 326/2/5 329/2/5
f 331/2/5 328/2/5 327/2/5
f 332/2/5 328/2/5 331/2/5
f 335/2/5 334/2/5 333/2/5
f 336/2/5 334/2/5 335/2/5
f 341/1/5 338/1/5 337/1/5
f 342/1/5 338/1/5 341/1/5
f 343/1/5 340/1/5 339/1/5
f 344/1/5 340/1/5 343/1/5
f 347/1/5 346/1/5 345/1/5
f 348/1/5 346/1/5 347/1/5
f 349/1/6 350/1/6 351/1/6
f 351/1/6 350/1/6 352/1/6
f 353/2/6 354/2/6 355/2/6
f 355/2/6 354/2/6 356/2/6
f 357/1/6 358/1/6 361/1/6
f 361/1/6 358/1/6 362/1/6
f 359/1/6 360/1/6 363/1/6
f 363/1/6 360/1/6 364/1/6
f 365/2/6 366/2/6 369/2/6
f 369/2/6 366/2/6 370/2/6
f 367/2/6 368/2/6 371/2/6
f 371/2/6 368/2/6 372/2/6
f 373/2/6 374/2/6 377/2/6
f 377/2/6 374/2/6 378/2/6
f 375/2/6 376/2/6 379/2/6
f 379/2/6 376/2/6 380/2/6
f 381/1/6 382/1/6 385/1/6
f 385/1/6 382/1/6 386/1/6
f 383/1/6 384/1/6 387/1/6
f 387/1/6 384/1/6 388/1/6
f 389/1/6 390/1/6 393/1/6
f 393/1/6 390/1/6 394/1/6
f 391/2/6 392/2/6 397/2/6
f 397/2/6 392/2/6 398/2/6
f 395/2/6 396/2/6 399/2/6
f 399/2/6 396/2/6 400/2/6
f 401/2/6 402/2/6 403/2/6
f 403/2/6 402/2/6 404/2/6
f 405/2/6 406/2/6 407/2/6
f 407/2/6 406/2/6 408/2/6
