# MagicaVoxel @ Ephtracy

# material
mtllib Shower.mtl
usemtl palette

# normals
vn -1 0 0
vn 1 0 0
vn 0 0 1
vn 0 0 -1
vn 0 -1 0
vn 0 1 0

# texcoords
vt 0.865234 0.5
vt 0.935547 0.5
vt 0.982422 0.5
vt 0.986328 0.5

# verts
v -4 0 -1
v -4 0 -2
v -4 4 -1
v -4 4 -2
v -3 3 1
v -3 3 -0
v -3 3 -1
v -3 4 1
v -3 4 -0
v -3 4 -1
v -2 13 3
v -2 13 -0
v -2 14 3
v -2 14 -0
v -1 3 -1
v -1 3 -2
v -1 14 2
v -1 14 -0
v -1 14 -1
v -1 15 2
v -1 15 -2
v 1 3 1
v 1 3 -0
v 1 3 -1
v 1 3 -2
v 1 4 1
v 1 4 -0
v 1 4 -2
v -2 3 1
v -2 3 -0
v -2 3 -1
v -2 3 -2
v -2 4 1
v -2 4 -0
v -2 4 -2
v 0 3 -1
v 0 3 -2
v 0 14 2
v 0 14 -0
v 0 14 -1
v 0 15 2
v 0 15 -2
v 1 13 3
v 1 13 -0
v 1 14 3
v 1 14 -0
v 2 3 1
v 2 3 -0
v 2 3 -1
v 2 4 1
v 2 4 -0
v 2 4 -1
v 3 0 -1
v 3 0 -2
v 3 4 -1
v 3 4 -2
v -2 13 3
v -2 14 3
v 1 13 3
v 1 14 3
v -1 14 2
v -1 15 2
v 0 14 2
v 0 15 2
v -3 3 1
v -3 4 1
v -2 3 1
v -2 4 1
v 1 3 1
v 1 4 1
v 2 3 1
v 2 4 1
v -4 0 -1
v -4 4 -1
v -3 1 -1
v -3 3 -1
v -3 4 -1
v -2 1 -1
v -2 3 -1
v -1 3 -1
v -1 14 -1
v 0 3 -1
v 0 14 -1
v 1 1 -1
v 1 3 -1
v 2 1 -1
v 2 3 -1
v 2 4 -1
v 3 0 -1
v 3 4 -1
v -2 13 -0
v -2 14 -0
v -1 14 -0
v 0 14 -0
v 1 13 -0
v 1 14 -0
v -4 0 -2
v -4 4 -2
v -3 1 -2
v -3 3 -2
v -2 1 -2
v -2 3 -2
v -2 4 -2
v -1 3 -2
v -1 15 -2
v 0 3 -2
v 0 15 -2
v 1 1 -2
v 1 3 -2
v 1 4 -2
v 2 1 -2
v 2 3 -2
v 3 0 -2
v 3 4 -2
v -4 0 -1
v 3 0 -1
v -4 0 -2
v 3 0 -2
v -3 3 1
v -2 3 1
v 1 3 1
v 2 3 1
v -3 3 -0
v -2 3 -0
v 1 3 -0
v 2 3 -0
v -3 3 -1
v -2 3 -1
v 1 3 -1
v 2 3 -1
v -2 13 3
v 1 13 3
v -2 13 -0
v 1 13 -0
v -1 14 -0
v 0 14 -0
v -1 14 -1
v 0 14 -1
v -2 3 -1
v -1 3 -1
v 0 3 -1
v 1 3 -1
v -2 3 -2
v -1 3 -2
v 0 3 -2
v 1 3 -2
v -3 4 1
v -2 4 1
v 1 4 1
v 2 4 1
v -3 4 -0
v -2 4 -0
v 1 4 -0
v 2 4 -0
v -4 4 -1
v -3 4 -1
v 2 4 -1
v 3 4 -1
v -4 4 -2
v -2 4 -2
v 1 4 -2
v 3 4 -2
v -2 14 3
v 1 14 3
v -1 14 2
v 0 14 2
v -2 14 -0
v -1 14 -0
v 0 14 -0
v 1 14 -0
v -1 15 2
v 0 15 2
v -1 15 -2
v 0 15 -2

# faces
f 3/4/1 2/4/1 1/4/1
f 4/4/1 2/4/1 3/4/1
f 8/3/1 6/3/1 5/3/1
f 9/4/1 7/4/1 6/4/1
f 9/3/1 6/3/1 8/3/1
f 10/4/1 7/4/1 9/4/1
f 13/4/1 12/4/1 11/4/1
f 14/4/1 12/4/1 13/4/1
f 19/4/1 16/4/1 15/4/1
f 20/4/1 18/4/1 17/4/1
f 20/4/1 19/4/1 18/4/1
f 21/4/1 16/4/1 19/4/1
f 21/4/1 19/4/1 20/4/1
f 26/3/1 23/3/1 22/3/1
f 27/4/1 25/4/1 24/4/1
f 27/3/1 23/3/1 26/3/1
f 27/4/1 24/4/1 23/4/1
f 28/4/1 25/4/1 27/4/1
f 29/3/2 30/3/2 33/3/2
f 31/4/2 32/4/2 34/4/2
f 33/3/2 30/3/2 34/3/2
f 30/4/2 31/4/2 34/4/2
f 34/4/2 32/4/2 35/4/2
f 36/4/2 37/4/2 40/4/2
f 38/4/2 39/4/2 41/4/2
f 39/4/2 40/4/2 41/4/2
f 40/4/2 37/4/2 42/4/2
f 41/4/2 40/4/2 42/4/2
f 43/4/2 44/4/2 45/4/2
f 45/4/2 44/4/2 46/4/2
f 47/3/2 48/3/2 50/3/2
f 48/4/2 49/4/2 51/4/2
f 50/3/2 48/3/2 51/3/2
f 51/4/2 49/4/2 52/4/2
f 53/4/2 54/4/2 55/4/2
f 55/4/2 54/4/2 56/4/2
f 59/4/3 58/4/3 57/4/3
f 60/4/3 58/4/3 59/4/3
f 63/4/3 62/4/3 61/4/3
f 64/4/3 62/4/3 63/4/3
f 67/3/3 66/3/3 65/3/3
f 68/3/3 66/3/3 67/3/3
f 71/3/3 70/3/3 69/3/3
f 72/3/3 70/3/3 71/3/3
f 75/4/3 74/4/3 73/4/3
f 76/4/3 74/4/3 75/4/3
f 77/4/3 74/4/3 76/4/3
f 78/4/3 75/4/3 73/4/3
f 78/2/3 76/2/3 75/2/3
f 79/2/3 76/2/3 78/2/3
f 80/4/3 79/4/3 78/4/3
f 82/4/3 80/4/3 78/4/3
f 82/4/3 81/4/3 80/4/3
f 83/4/3 81/4/3 82/4/3
f 84/4/3 78/4/3 73/4/3
f 84/4/3 82/4/3 78/4/3
f 85/4/3 82/4/3 84/4/3
f 86/4/3 84/4/3 73/4/3
f 86/1/3 85/1/3 84/1/3
f 87/1/3 85/1/3 86/1/3
f 89/4/3 87/4/3 86/4/3
f 89/4/3 88/4/3 87/4/3
f 89/4/3 86/4/3 73/4/3
f 90/4/3 88/4/3 89/4/3
f 91/4/4 92/4/4 93/4/4
f 91/4/4 93/4/4 94/4/4
f 91/4/4 94/4/4 95/4/4
f 95/4/4 94/4/4 96/4/4
f 97/4/4 98/4/4 99/4/4
f 99/4/4 98/4/4 100/4/4
f 97/4/4 99/4/4 101/4/4
f 99/2/4 100/2/4 101/2/4
f 100/4/4 98/4/4 102/4/4
f 101/2/4 100/2/4 102/2/4
f 102/4/4 98/4/4 103/4/4
f 101/4/4 102/4/4 104/4/4
f 101/4/4 104/4/4 106/4/4
f 104/4/4 105/4/4 106/4/4
f 106/4/4 105/4/4 107/4/4
f 97/4/4 101/4/4 108/4/4
f 101/4/4 106/4/4 108/4/4
f 108/4/4 106/4/4 109/4/4
f 97/4/4 108/4/4 111/4/4
f 108/1/4 109/1/4 111/1/4
f 109/4/4 110/4/4 112/4/4
f 111/1/4 109/1/4 112/1/4
f 97/4/4 111/4/4 113/4/4
f 111/4/4 112/4/4 113/4/4
f 112/4/4 110/4/4 114/4/4
f 113/4/4 112/4/4 114/4/4
f 117/4/5 116/4/5 115/4/5
f 118/4/5 116/4/5 117/4/5
f 123/3/5 120/3/5 119/3/5
f 124/3/5 120/3/5 123/3/5
f 125/3/5 122/3/5 121/3/5
f 126/3/5 122/3/5 125/3/5
f 127/4/5 124/4/5 123/4/5
f 128/4/5 124/4/5 127/4/5
f 129/4/5 126/4/5 125/4/5
f 130/4/5 126/4/5 129/4/5
f 133/4/5 132/4/5 131/4/5
f 134/4/5 132/4/5 133/4/5
f 137/4/5 136/4/5 135/4/5
f 138/4/5 136/4/5 137/4/5
f 139/4/6 140/4/6 143/4/6
f 143/4/6 140/4/6 144/4/6
f 141/4/6 142/4/6 145/4/6
f 145/4/6 142/4/6 146/4/6
f 147/3/6 148/3/6 151/3/6
f 151/3/6 148/3/6 152/3/6
f 149/3/6 150/3/6 153/3/6
f 153/3/6 150/3/6 154/3/6
f 151/4/6 152/4/6 156/4/6
f 153/4/6 154/4/6 157/4/6
f 155/4/6 156/4/6 159/4/6
f 156/4/6 152/4/6 160/4/6
f 159/4/6 156/4/6 160/4/6
f 153/4/6 157/4/6 161/4/6
f 157/4/6 158/4/6 161/4/6
f 161/4/6 158/4/6 162/4/6
f 163/4/6 164/4/6 165/4/6
f 165/4/6 164/4/6 166/4/6
f 163/4/6 165/4/6 167/4/6
f 167/4/6 165/4/6 168/4/6
f 166/4/6 164/4/6 169/4/6
f 169/4/6 164/4/6 170/4/6
f 171/4/6 172/4/6 173/4/6
f 173/4/6 172/4/6 174/4/6
